<?xml version="1.0" encoding="utf-8"?>
<!-- Generator: Adobe Illustrator 27.2.0, SVG Export Plug-In . SVG Version: 6.00 Build 0)  -->
<svg version="1.1" id="Layer_464" xmlns="http://www.w3.org/2000/svg" xmlns:xlink="http://www.w3.org/1999/xlink" x="0px" y="0px"
	 viewBox="0 0 2247.6 1885.4" style="enable-background:new 0 0 2247.6 1885.4;" xml:space="preserve">
<style type="text/css">
	.st0{fill:#FF743B;}
</style>
<path class="st0" d="M2245.5,950.7C2026.8,708,1789.8,476,1560.6,251.6c-80.6-78.9-163.8-160.4-245.2-241.3c-1-4.3-3.5-7.5-7.1-9.2
	c-4-1.9-8.5-1.3-12.2,1.4c-5.6,4.2-7.9,12.4-6.5,22.7v288.2H8c-4.4,0-8,3.6-8,8v1218.2c0,4.4,3.5,7.9,7.9,8
	c162.5,2.6,331.7,1.2,495.3-0.1c263.3-2.2,535.4-4.4,786.6,9.9v320c0,3.1,1.8,6,4.7,7.3c1.1,0.5,2.2,0.7,3.3,0.7
	c1.9,0,3.8-0.7,5.3-2c173.4-151.4,351.5-332.7,523.8-508.1c136.7-139.1,278-283,418.2-413.4C2248.2,958.9,2248.5,953.9,2245.5,950.7
	z"/>
</svg>
