<?xml version="1.0" encoding="UTF-8"?>
<svg xmlns="http://www.w3.org/2000/svg" viewBox="0 0 1000.2402326249 1000.2402326249">
  <defs>
    <style>
      .cls-1 {
        fill: #fff;
      }

      .cls-2 {
        fill: #cf2e27;
      }

      .cls-3 {
        fill: #002888;
      }

      .cls-4 {
        fill: #ffde39;
        stroke: #002888;
        stroke-miterlimit: 10;
        stroke-width: 20px;
      }
    </style>
  </defs>
  <g id="Layer_6" data-name="Layer 6">
    <circle class="cls-4" cx="500.1201163124" cy="500.1201163124" r="490.1201163124"/>
  </g>
  <g id="Layer_3" data-name="Layer 3">
    <g>
      <path class="cls-2" d="M698.5645642932,338.1221042058l2.9294095658,4.8717655144s1.0118883916,3.9638362408-3.2605820273,10.0299986728c-4.272458428,6.0660791985,17.1817201797,23.4745453261,17.1817201797,23.4745453261,0,0,15.9508130001,22.3427228611,16.7906464755,38.690446589,.8398334754,16.3477237279-13.5144786974,16.1888229102-13.5144786974,16.1888229102l-15.8935620004-6.1077406192s-14.2196003954-1.0939875836-25.2261226619,8.7745559853c-11.0065222665,9.8685435689-42.1434261744,52.1391182522-42.1434261744,52.1391182522,0,0-24.993426455,47.9580851066-113.3980837955,118.2649552112,0,0-32.4233870497,42.1001926855-43.5903969183,58.6271999177-11.1670098686,16.5270072322-71.7286521636,76.5273321417-122.2840962673,116.9698742262,0,0-47.4857592155-119.4736707435-82.2938766814-127.3517700988-34.8081288828-7.8781434806-83.701163796-17.7853638191-95.0086544419-28.0050158918-11.3074879352-10.2196092018-19.4907458029-47.6700461919-31.6065163934-52.2790515649-12.115776586-4.6089637563-21.8582676982-14.6031566878-40.2855940682-8.6672032141-18.4273160215,5.935912484-33.6157362008,17.1110277381-33.6157362008,17.1110277381,0,0,35.6192147691-114.1828915931,85.7189367795-140.3733609226,50.0997133042-26.1904705837,110.1339822613-27.08688058,110.1339822613-27.08688058l145.0529541409,6.5791162045c10.629241006-2.066471908,23.1515500806-5.4090176609,36.8842497003-10.9130643464,14.22502428-5.701384927,26.361157046-12.3642740433,36.2326737577-18.6430529204,5.0024486888-6.4620140131,10.4465813757-14.5772884244,15.5094274975-24.4920804348,2.2553416549-4.4167584938,4.1814670331-8.6940309094,5.8302423959-12.7484326078,3.9967316774-5.364432073,10.9224791356-13.3449338752,21.198790644-19.6292447954,7.5621997718-4.6245276334,14.4712800968-6.8215048507,19.5132907913-7.9297824587,6.1587960781,1.6040725952,12.3175693223,3.2080569399,18.4763654004,4.8121295351-.2587993815-3.7477831199-.5176455787-7.4954880232-.7764449602-11.2432711431l6.016957093-2.95582481,125.4279246057,21.8922203254Z"/>
      <path class="cls-1" d="M418.0900100466,444.3884133143l-152.9075244878-8.6651745487s-27.0920994689-11.539095224-65.0244577102,7.8136158879c-37.9323582413,19.3527111119-55.2246260607,34.042788182-55.2246260607,34.042788182l62.2154938656-21.5814868351s37.9065650207-13.6293403617,72.2016266459-7.7341630211,138.7394877473-3.875579665,138.7394877473-3.875579665Z"/>
      <path class="cls-1" d="M188.4550956217,607.9364022031s25.5414056848-49.7732268122,47.3939283121-62.8518236716c21.8525226273-13.0785968593,85.3992008855-32.8116915882,85.3992008855-32.8116915882l81.8215431906-14.6865034243s59.3587714696-17.2204637792,94.0522285771-41.8123541489c34.6934571075-24.5918903697,44.994857122-51.7432687867,44.994857122-51.7432687867l-6.2284175231,21.0565450463s-15.1826706428,38.8568536661-89.8349549201,69.1463130724c-74.6522842773,30.2894594063-82.5505309695,24.1266273206-82.5505309695,24.1266273206,0,0-28.3401556134-2.8758528096-63.2772488792,17.8628807694s-111.7706057956,71.7132754111-111.7706057956,71.7132754111Z"/>
      <path class="cls-1" d="M360.7616862294,742.5286341125s4.5926882969-78.5630598374,22.9091664947-110.2868455134c18.3164781978-31.723785676,79.127490141-60.1892079847,79.127490141-60.1892079847,0,0,41.1970525958-19.8369026043,61.9403159004-47.3930196468,20.7432633046-27.5561170425,51.3006543072-89.9699260836,51.3006543072-89.9699260836l-16.5556107583,53.9312942135s-12.8351858941,39.1950402816-43.91139102,71.9441597201c-31.076205126,32.7491194386-57.8673334091,41.2981862761-57.8673334091,41.2981862761,0,0-26.6564135936,7.6139598579-38.4970102199,28.816509781s-31.2625062568,45.1309679186-31.2625062568,45.1309679186l-27.1837751793,66.7178813191Z"/>
      <polygon class="cls-1" points="545.2652288505 337.8220260686 556.2201576779 339.4002302743 575.8153599333 342.2231815777 559.6189853582 346.4177676406 537.3014655707 343.2026300395 545.2652288505 337.8220260686"/>
      <path class="cls-1" d="M697.1830996843,372.9173216085s13.9727154574,10.9689944415,15.8071272242,14.8686198902c1.8344117668,3.8996254488,9.7424891774,15.5385486878,9.7424891774,15.5385486878l-4.6949694975-.676373231-20.8546469041-29.730795347Z"/>
      <path class="cls-1" d="M689.7590081348,393.8016137989s-10.0635124423,3.3227884366-13.6234293964,11.4005646386c-3.5599169541,8.077776202-2.5595791002,17.7670326147-2.5595791002,17.7670326147l13.9602161202-13.7383320879,2.2227923765-15.4292651654Z"/>
    </g>
  </g>
  <g id="Layer_7" data-name="Layer 7">
    <g>
      <g id="layer1">
        <path id="rect3756" class="cls-3" d="M741.3994604211,133.2269544549l-21.5994990238,149.9305169973c-13.8106999324,95.8654355215-176.0840834098,73.4166887152-161.184224327-27.8857784192l20.9411032855-145.3603363036c10.6959737047-25.1834251705,14.4879887043-28.089949157,19.60130497,.8696048643l-6.620534132,94.8156197669c3.0161460035,25.362950615,11.2284468811,24.5671453185,18.4089398833,2.878941486,8.3467663504-25.2109406593,18.1874442019-90.1486793488,18.1874442019-90.1486793488,9.6573051374-30.5782857573,16.5055600408-28.4319751249,18.5779130731,3.3260120619l-9.2005188311,91.0196865382c.5856037529,26.4058709138,10.9889322341,26.9131534628,19.2753584456,1.9891644757l13.6824511324-91.3502684052c9.7789137265-30.6861524543,20.1298018992-27.4761156832,21.8748301694,4.6400577288,0,0-9.9488238033,64.6076795252-8.5237629908,90.8359019387-.482051687,28.6319119588,10.6925207373,22.5033826033,17.7997309743,1.8462486806,9.9874615534-29.028614887,17.2767613621-84.6150672595,19.5480227575-94.0972394223,8.5220494285-30.5960406776,22.0363326534-15.9272248484,19.2314345695,6.6905879142l.0000058423-.0000405535Z"/>
        <path id="rect3759" class="cls-3" d="M659.7452795929,343.2425514664c-20.7043459288,4.1047811661-43.3994103899,.0109091716-62.4352576255-9.6164739531-8.8726885621,232.3418413982-55.7376286597,397.4981859349-88.9022032925,586.9074763988-3.0368550463,17.3442200042,11.2786822643,33.7555467262,30.918385757,36.5849091395,19.6397034927,2.8293624133,38.7034581823-8.7947555942,39.9878710349-26.3699128739,14.4669561666-197.9562133803,32.3531169215-394.3920846467,80.4312158107-587.5060798183l-.0000116846,.0000811071Z"/>
      </g>
      <g>
        <ellipse class="cls-1" cx="605.8370719623" cy="251.2073057028" rx="12.1215539152" ry="13.6706228404" transform="translate(270.8095805835 815.0337401867) rotate(-81.8021771631)"/>
        <ellipse class="cls-1" cx="675.821854037" cy="261.2895511898" rx="12.1215539152" ry="13.6706228404" transform="translate(320.8359183877 892.9479980155) rotate(-81.8021771629)"/>
        <path class="cls-1" d="M683.9049086118,301.0544011377c-2.7483348429,3.4685553031-8.5715898463,9.7677419155-18.5664635991,14.0675385038-14.0181545155,6.0305376759-27.2866004712,4.2752657337-31.9676927,3.4557601315-4.695269355-.3458344344-22.2361015576-2.1391378948-35.5956885434-15.0494704192-6.1877031982-5.9796360382-9.3089838744-12.2476412663-10.9167642711-16.4546924519,13.4039105317,4.4214305715,30.4223389458,8.9073230385,50.4281562764,11.6053860213,17.8022727238,2.4008965052,33.6121716988,2.7983545428,46.6184528371,2.3754782145Z"/>
      </g>
    </g>
    <path class="cls-1" d="M635.381604055,363.4577572261s-46.4837150531,208.8-59.3422909822,363.0857142857c0,0,20.0557097852-88.4571428571,20.0557097852-94.6285714286s39.286581197-268.4571428571,39.286581197-268.4571428571Z"/>
  </g>
</svg>