<?xml version="1.0" encoding="utf-8"?>
<!-- Generator: Adobe Illustrator 27.2.0, SVG Export Plug-In . SVG Version: 6.00 Build 0)  -->
<svg version="1.1" id="Ñëîé_1" xmlns="http://www.w3.org/2000/svg" xmlns:xlink="http://www.w3.org/1999/xlink" x="0px" y="0px"
	 viewBox="0 0 2194 1860.4385986" style="enable-background:new 0 0 2194 1860.4385986;" xml:space="preserve">
<style type="text/css">
	.st0{opacity:0.7;}
	.st1{opacity:0;fill:#FFFFFF;}
	.st2{opacity:0.0078125;fill:#FEFEFE;}
	.st3{opacity:0.015625;fill:#FDFDFD;}
	.st4{opacity:0.0234375;fill:#FCFCFC;}
	.st5{opacity:0.03125;fill:#FBFBFB;}
	.st6{opacity:0.0390625;fill:#FAFAFA;}
	.st7{opacity:0.046875;fill:#F9F9F9;}
	.st8{opacity:0.0546875;fill:#F8F8F8;}
	.st9{opacity:0.0625;fill:#F7F7F7;}
	.st10{opacity:0.0703125;fill:#F6F6F6;}
	.st11{opacity:0.078125;fill:#F5F5F5;}
	.st12{opacity:0.0859375;fill:#F4F4F4;}
	.st13{opacity:0.09375;fill:#F3F3F3;}
	.st14{opacity:0.1015625;fill:#F2F2F2;}
	.st15{opacity:0.109375;fill:#F1F1F1;}
	.st16{opacity:0.1171875;fill:#F0F0F0;}
	.st17{opacity:0.125;fill:#EFEFEF;}
	.st18{opacity:0.1328125;fill:#EEEEEE;}
	.st19{opacity:0.140625;fill:#EDEDED;}
	.st20{opacity:0.1484375;fill:#ECECEC;}
	.st21{opacity:0.15625;fill:#EBEBEB;}
	.st22{opacity:0.1640625;fill:#EAEAEA;}
	.st23{opacity:0.171875;fill:#E9E9E9;}
	.st24{opacity:0.1796875;fill:#E8E8E8;}
	.st25{opacity:0.1875;fill:#E7E7E7;}
	.st26{opacity:0.1953125;fill:#E6E6E6;}
	.st27{opacity:0.203125;fill:#E5E5E5;}
	.st28{opacity:0.2109375;fill:#E4E4E4;}
	.st29{opacity:0.21875;fill:#E3E3E3;}
	.st30{opacity:0.2265625;fill:#E2E2E2;}
	.st31{opacity:0.234375;fill:#E1E1E1;}
	.st32{opacity:0.2421875;fill:#E0E0E0;}
	.st33{opacity:0.25;fill:#DFDFDF;}
	.st34{opacity:0.2578125;fill:#DEDEDE;}
	.st35{opacity:0.265625;fill:#DDDDDD;}
	.st36{opacity:0.2734375;fill:#DCDCDC;}
	.st37{opacity:0.28125;fill:#DBDBDB;}
	.st38{opacity:0.2890625;fill:#DADADA;}
	.st39{opacity:0.296875;fill:#D9D9D9;}
	.st40{opacity:0.3046875;fill:#D8D8D8;}
	.st41{opacity:0.3125;fill:#D7D7D7;}
	.st42{opacity:0.3203125;fill:#D6D6D6;}
	.st43{opacity:0.328125;fill:#D5D5D5;}
	.st44{opacity:0.3359375;fill:#D4D4D4;}
	.st45{opacity:0.34375;fill:#D3D3D3;}
	.st46{opacity:0.3515625;fill:#D2D2D2;}
	.st47{opacity:0.359375;fill:#D1D1D1;}
	.st48{opacity:0.3671875;fill:#D0D0D0;}
	.st49{opacity:0.375;fill:#CFCFCF;}
	.st50{opacity:0.3828125;fill:#CECECE;}
	.st51{opacity:0.390625;fill:#CDCDCD;}
	.st52{opacity:0.3984375;fill:#CCCCCC;}
	.st53{opacity:0.40625;fill:#CBCBCB;}
	.st54{opacity:0.4140625;fill:#CACACA;}
	.st55{opacity:0.421875;fill:#C9C9C9;}
	.st56{opacity:0.4296875;fill:#C8C8C8;}
	.st57{opacity:0.4375;fill:#C7C7C7;}
	.st58{opacity:0.4453125;fill:#C6C6C6;}
	.st59{opacity:0.453125;fill:#C5C5C5;}
	.st60{opacity:0.4609375;fill:#C4C4C4;}
	.st61{opacity:0.46875;fill:#C3C3C3;}
	.st62{opacity:0.4765625;fill:#C2C2C2;}
	.st63{opacity:0.484375;fill:#C1C1C1;}
	.st64{opacity:0.4921875;fill:#C0C0C0;}
	.st65{opacity:0.5;fill:#C0C0C0;}
	.st66{opacity:0.5078125;fill:#BFBFBF;}
	.st67{opacity:0.515625;fill:#BEBEBE;}
	.st68{opacity:0.5234375;fill:#BDBDBD;}
	.st69{opacity:0.53125;fill:#BCBCBC;}
	.st70{opacity:0.5390625;fill:#BBBBBB;}
	.st71{opacity:0.546875;fill:#BABABA;}
	.st72{opacity:0.5546875;fill:#B9B9B9;}
	.st73{opacity:0.5625;fill:#B8B8B8;}
	.st74{opacity:0.5703125;fill:#B7B7B7;}
	.st75{opacity:0.578125;fill:#B6B6B6;}
	.st76{opacity:0.5859375;fill:#B5B5B5;}
	.st77{opacity:0.59375;fill:#B4B4B4;}
	.st78{opacity:0.6015625;fill:#B3B3B3;}
	.st79{opacity:0.609375;fill:#B2B2B2;}
	.st80{opacity:0.6171875;fill:#B1B1B1;}
	.st81{opacity:0.625;fill:#B0B0B0;}
	.st82{opacity:0.6328125;fill:#AFAFAF;}
	.st83{opacity:0.640625;fill:#AEAEAE;}
	.st84{opacity:0.6484375;fill:#ADADAD;}
	.st85{opacity:0.65625;fill:#ACACAC;}
	.st86{opacity:0.6640625;fill:#ABABAB;}
	.st87{opacity:0.671875;fill:#AAAAAA;}
	.st88{opacity:0.6796875;fill:#A9A9A9;}
	.st89{opacity:0.6875;fill:#A8A8A8;}
	.st90{opacity:0.6953125;fill:#A7A7A7;}
	.st91{opacity:0.703125;fill:#A6A6A6;}
	.st92{opacity:0.7109375;fill:#A5A5A5;}
	.st93{opacity:0.71875;fill:#A4A4A4;}
	.st94{opacity:0.7265625;fill:#A3A3A3;}
	.st95{opacity:0.734375;fill:#A2A2A2;}
	.st96{opacity:0.7421875;fill:#A1A1A1;}
	.st97{opacity:0.75;fill:#A0A0A0;}
	.st98{opacity:0.7578125;fill:#9F9F9F;}
	.st99{opacity:0.765625;fill:#9E9E9E;}
	.st100{opacity:0.7734375;fill:#9D9D9D;}
	.st101{opacity:0.78125;fill:#9C9C9C;}
	.st102{opacity:0.7890625;fill:#9B9B9B;}
	.st103{opacity:0.796875;fill:#9A9A9A;}
	.st104{opacity:0.8046875;fill:#999999;}
	.st105{opacity:0.8125;fill:#989898;}
	.st106{opacity:0.8203125;fill:#979797;}
	.st107{opacity:0.828125;fill:#969696;}
	.st108{opacity:0.8359375;fill:#959595;}
	.st109{opacity:0.84375;fill:#949494;}
	.st110{opacity:0.8515625;fill:#939393;}
	.st111{opacity:0.859375;fill:#929292;}
	.st112{opacity:0.8671875;fill:#919191;}
	.st113{opacity:0.875;fill:#909090;}
	.st114{opacity:0.8828125;fill:#8F8F8F;}
	.st115{opacity:0.890625;fill:#8E8E8E;}
	.st116{opacity:0.8984375;fill:#8D8D8D;}
	.st117{opacity:0.90625;fill:#8C8C8C;}
	.st118{opacity:0.9140625;fill:#8B8B8B;}
	.st119{opacity:0.921875;fill:#8A8A8A;}
	.st120{opacity:0.9296875;fill:#898989;}
	.st121{opacity:0.9375;fill:#888888;}
	.st122{opacity:0.9453125;fill:#878787;}
	.st123{opacity:0.953125;fill:#868686;}
	.st124{opacity:0.9609375;fill:#858585;}
	.st125{opacity:0.96875;fill:#848484;}
	.st126{opacity:0.9765625;fill:#838383;}
	.st127{opacity:0.984375;fill:#828282;}
	.st128{opacity:0.9921875;fill:#818181;}
	.st129{fill:#808080;}
	.st130{fill:#020203;}
	.st131{filter:url(#Adobe_OpacityMaskFilter);}
	.st132{filter:url(#Adobe_OpacityMaskFilter_00000068642334437756136760000003553326308343660454_);}
	.st133{mask:url(#SVGID_1_);fill:url(#SVGID_00000118390003387301343040000007747313305212344480_);}
	.st134{fill:url(#SVGID_00000154427369391498209250000005563720014278607798_);}
	.st135{fill:url(#SVGID_00000065762852351932355460000002936949969424072579_);}
	.st136{fill:url(#SVGID_00000145053686607160883520000012678377714375370131_);}
	.st137{fill:url(#SVGID_00000031887072676088708770000018328931160692429483_);}
	.st138{fill:url(#SVGID_00000134227952288323359630000001448445601430272660_);}
	.st139{fill:#FFFFFF;}
</style>
<g>
	<g class="st0">
		<path class="st1" d="M1832.473999,1776.9016113c0,41.3306885-535.8378906,83.5369873-755.1676025,83.5369873
			c-219.3289795,0-675.2805176-42.2062988-675.2805176-83.5369873c0-41.3305664,455.9515381-66.1330566,675.2805176-66.1330566
			c157.8000488,0,479.4329834,12.8382568,647.4732666,35.4338379
			C1790.3028564,1755.0130615,1832.473999,1765.3068848,1832.473999,1776.9016113z"/>
		<path class="st2" d="M1077.4471436,1711.0716553c157.5145264,0,477.463501,12.7835693,644.6433105,35.270874
			c65.2429199,8.7767334,107.2175293,19.0308838,107.2175293,30.5786133
			c0,41.1364746-532.8126221,83.1173096-751.8608398,83.1173096c-219.0475464,0-672.5979004-41.980835-672.5979004-83.1173096
			C404.8492432,1735.78479,858.3995972,1711.0716553,1077.4471436,1711.0716553z"/>
		<path class="st3" d="M1077.5877686,1711.3747559c157.229126,0,475.4940186,12.7290039,641.8134766,35.1079102
			c64.9625244,8.7427979,106.7406006,18.9572754,106.7406006,30.4578857c0,40.9423828-529.7872314,82.697876-748.5540771,82.697876
			c-218.7660522,0-669.9151611-41.7554932-669.9151611-82.697876
			C407.6726074,1735.9984131,858.8217163,1711.3747559,1077.5877686,1711.3747559z"/>
		<path class="st4" d="M1077.7285156,1711.6778564c156.9437256,0,473.5245361,12.6743164,638.9836426,34.9448242
			c64.6820068,8.7088623,106.2636719,18.8837891,106.2636719,30.3374023
			c0,40.7481689-526.7619629,82.2781982-745.2473145,82.2781982c-218.4846191,0-667.2325439-41.5300293-667.2325439-82.2781982
			C410.4959717,1736.2121582,859.2438965,1711.6778564,1077.7285156,1711.6778564z"/>
		<path class="st5" d="M1077.8692627,1711.980957c156.6582031,0,471.5550537,12.619751,636.1536865,34.7818604
			c64.4016113,8.6749268,105.7868652,18.8100586,105.7868652,30.2166748
			c0,40.5540771-523.7366943,81.8587646-741.9405518,81.8587646c-218.2032471,0-664.5499268-41.3046875-664.5499268-81.8587646
			C413.3193359,1736.4257812,859.6660156,1711.980957,1077.8692627,1711.980957z"/>
		<path class="st6" d="M1078.0100098,1712.2840576c156.3728027,0,469.5854492,12.5650635,633.3238525,34.6188965
			c64.1210938,8.6408691,105.3099365,18.7364502,105.3099365,30.0960693
			c0,40.3597412-520.7113037,81.4390869-738.6337891,81.4390869c-217.921814,0-661.8673096-41.0793457-661.8673096-81.4390869
			C416.1427002,1736.6394043,860.0881958,1712.2840576,1078.0100098,1712.2840576z"/>
		<path class="st7" d="M1078.1506348,1712.5871582c156.0874023,0,467.6160889,12.510376,630.4940186,34.4559326
			c63.8408203,8.6069336,104.8330078,18.6628418,104.8330078,29.9754639
			c0,40.1655273-517.6859131,81.0195312-735.3270264,81.0195312c-217.6402588,0-659.1845703-40.8540039-659.1845703-81.0195312
			C418.9660645,1736.8531494,860.510376,1712.5871582,1078.1506348,1712.5871582z"/>
		<path class="st8" d="M1078.2913818,1712.8902588c155.8018799,0,465.6464844,12.4558105,627.6641846,34.2929688
			c63.5603027,8.572998,104.3560791,18.5892334,104.3560791,29.8547363c0,39.9714355-514.6606445,80.5999756-732.0202637,80.5999756
			c-217.3588867,0-656.5019531-40.62854-656.5019531-80.5999756
			C421.7894287,1737.0667725,860.9324951,1712.8902588,1078.2913818,1712.8902588z"/>
		<path class="st9" d="M1078.4321289,1713.1933594c155.5164795,0,463.677002,12.401123,624.8342285,34.1298828
			c63.2799072,8.5390625,103.8792725,18.5157471,103.8792725,29.7342529c0,39.7772217-511.635376,80.1804199-728.713501,80.1804199
			c-217.0774536,0-653.8193359-40.4031982-653.8193359-80.1804199
			C424.612793,1737.2805176,861.3546753,1713.1933594,1078.4321289,1713.1933594z"/>
		<path class="st10" d="M1078.5727539,1713.49646c155.2310791,0,461.7076416,12.3465576,622.0043945,33.9669189
			c62.9995117,8.505127,103.4023438,18.4421387,103.4023438,29.6136475c0,39.5830078-508.6099854,79.7607422-725.4067383,79.7607422
			c-216.7958984,0-651.1365967-40.1777344-651.1365967-79.7607422
			C427.4361572,1737.4941406,861.7768555,1713.49646,1078.5727539,1713.49646z"/>
		<path class="st11" d="M1078.713501,1713.7995605c154.9455566,0,459.7380371,12.2918701,619.1745605,33.8039551
			c62.7191162,8.4711914,102.925415,18.3684082,102.925415,29.4929199c0,39.388916-505.5847168,79.3411865-722.0999756,79.3411865
			c-216.5145264,0-648.4539795-39.9522705-648.4539795-79.3411865
			C430.2595215,1737.7078857,862.1989746,1713.7995605,1078.713501,1713.7995605z"/>
		<path class="st12" d="M1078.854248,1714.1025391c154.6601562,0,457.7685547,12.2374268,616.3446045,33.6411133
			c62.4387207,8.4371338,102.4486084,18.2947998,102.4486084,29.3723145
			c0,39.1947021-502.5594482,78.9216309-718.7932129,78.9216309c-216.2330933,0-645.7713623-39.7269287-645.7713623-78.9216309
			C433.0828857,1737.9215088,862.6211548,1714.1025391,1078.854248,1714.1025391z"/>
		<path class="st13" d="M1078.994873,1714.4056396c154.3747559,0,455.7991943,12.1827393,613.5148926,33.4781494
			c62.1582031,8.4031982,101.9715576,18.2211914,101.9715576,29.251709c0,39.0004883-499.5340576,78.5019531-715.4864502,78.5019531
			c-215.9515991,0-643.088623-39.5014648-643.088623-78.5019531
			C435.90625,1738.1351318,863.0432739,1714.4056396,1078.994873,1714.4056396z"/>
		<path class="st14" d="M1079.1356201,1714.7087402c154.0892334,0,453.8295898,12.1280518,610.6849365,33.3150635
			c61.8778076,8.3693848,101.494751,18.1477051,101.494751,29.1311035c0,38.8062744-496.5087891,78.0825195-712.1796875,78.0825195
			c-215.670166,0-640.4060059-39.2762451-640.4060059-78.0825195
			C438.7296143,1738.348877,863.4654541,1714.7087402,1079.1356201,1714.7087402z"/>
		<path class="st15" d="M1079.2763672,1715.0118408c153.803833,0,451.8601074,12.0734863,607.8551025,33.1520996
			c61.59729,8.3353271,101.0178223,18.0740967,101.0178223,29.010498c0,38.6120605-493.4835205,77.6628418-708.8729248,77.6628418
			c-215.3887329,0-637.7233887-39.0507812-637.7233887-77.6628418
			C441.5529785,1738.5625,863.8876343,1715.0118408,1079.2763672,1715.0118408z"/>
		<path class="st16" d="M1079.4169922,1715.3149414c153.5184326,0,449.890625,12.0187988,605.0252686,32.9891357
			c61.3170166,8.3013916,100.5410156,18.0004883,100.5410156,28.8897705c0,38.4179688-490.458252,77.2434082-705.5662842,77.2434082
			c-215.1072388,0-635.0406494-38.8254395-635.0406494-77.2434082
			C444.3763428,1738.7762451,864.3097534,1715.3149414,1079.4169922,1715.3149414z"/>
		<path class="st17" d="M1079.5577393,1715.618042c153.2329102,0,447.9211426,11.9642334,602.1953125,32.8261719
			c61.0366211,8.267334,100.0640869,17.9267578,100.0640869,28.769165c0,38.2237549-487.4327393,76.8237305-702.2593994,76.8237305
			c-214.8258057,0-632.3580322-38.5999756-632.3580322-76.8237305
			C447.199707,1738.9898682,864.7319336,1715.618042,1079.5577393,1715.618042z"/>
		<path class="st18" d="M1079.6984863,1715.9211426c152.9475098,0,445.9516602,11.9095459,599.3654785,32.6630859
			c60.7561035,8.2335205,99.5871582,17.8532715,99.5871582,28.6486816c0,38.029541-484.4074707,76.4040527-698.9526367,76.4040527
			c-214.5443726,0-629.675415-38.3745117-629.675415-76.4040527
			C450.0230408,1739.2034912,865.1541138,1715.9211426,1079.6984863,1715.9211426z"/>
		<path class="st19" d="M1079.8391113,1716.2242432c152.6621094,0,443.9821777,11.8549805,596.5356445,32.5001221
			c60.475708,8.199585,99.1103516,17.7796631,99.1103516,28.5279541c0,37.8354492-481.3822021,75.9846191-695.6459961,75.9846191
			c-214.2628784,0-626.9926758-38.1491699-626.9926758-75.9846191
			C452.846405,1739.4172363,865.5762329,1716.2242432,1079.8391113,1716.2242432z"/>
		<path class="st20" d="M1079.9798584,1716.5273438c152.376709,0,442.0126953,11.800293,593.7058105,32.3371582
			c60.1951904,8.1655273,98.6333008,17.7060547,98.6333008,28.4073486c0,37.6412354-478.3568115,75.5649414-692.3391113,75.5649414
			c-213.9814453,0-624.3100586-37.9237061-624.3100586-75.5649414
			C455.6697693,1739.6308594,865.9984131,1716.5273438,1079.9798584,1716.5273438z"/>
		<path class="st21" d="M1080.1206055,1716.8304443c152.0911865,0,440.0430908,11.7456055,590.8758545,32.1741943
			c59.914917,8.1315918,98.1564941,17.6324463,98.1564941,28.2867432c0,37.4470215-475.331543,75.1453857-689.0323486,75.1453857
			c-213.7000122,0-621.6274414-37.6983643-621.6274414-75.1453857
			C458.4931335,1739.8446045,866.4205933,1716.8304443,1080.1206055,1716.8304443z"/>
		<path class="st22" d="M1080.2612305,1717.1335449c151.8057861,0,438.0737305,11.69104,588.0460205,32.0112305
			c59.6345215,8.0976562,97.6796875,17.5588379,97.6796875,28.1660156c0,37.2528076-472.3062744,74.7258301-685.725708,74.7258301
			c-213.4185181,0-618.9447021-37.4730225-618.9447021-74.7258301
			C461.3164978,1740.0582275,866.8427124,1717.1335449,1080.2612305,1717.1335449z"/>
		<path class="st23" d="M1080.4019775,1717.4366455c151.5203857,0,436.104248,11.6363525,585.2161865,31.8481445
			c59.3540039,8.0637207,97.2026367,17.4852295,97.2026367,28.0455322c0,37.0585938-469.2808838,74.3062744-682.4188232,74.3062744
			c-213.137085,0-616.262085-37.2476807-616.262085-74.3062744
			C464.1398621,1740.2718506,867.2648926,1717.4366455,1080.4019775,1717.4366455z"/>
		<path class="st24" d="M1080.5427246,1717.7397461c151.2348633,0,434.1346436,11.5817871,582.3862305,31.6851807
			c59.0736084,8.0297852,96.7258301,17.4116211,96.7258301,27.9249268c0,36.8643799-466.2556152,73.8865967-679.1120605,73.8865967
			c-212.8557129,0-613.5794678-37.0222168-613.5794678-73.8865967
			C466.9632263,1740.4855957,867.6870117,1717.7397461,1080.5427246,1717.7397461z"/>
		<path class="st25" d="M1080.6834717,1718.0428467c150.9493408,0,432.1651611,11.5270996,579.5563965,31.5222168
			c58.7930908,7.9958496,96.2489014,17.3380127,96.2489014,27.8041992c0,36.6702881-463.2303467,73.4671631-675.8052979,73.4671631
			c-212.5742798,0-610.8968506-36.796875-610.8968506-73.4671631
			C469.7865906,1740.6992188,868.1091919,1718.0428467,1080.6834717,1718.0428467z"/>
		<path class="st26" d="M1080.8240967,1718.3459473c150.6640625,0,430.1956787,11.4725342,576.7265625,31.3592529
			c58.5128174,7.961792,95.7720947,17.2644043,95.7720947,27.6835938c0,36.4760742-460.2050781,73.0474854-672.4986572,73.0474854
			c-212.2927246,0-608.2141113-36.5714111-608.2141113-73.0474854
			C472.6099548,1740.9129639,868.5313721,1718.3459473,1080.8240967,1718.3459473z"/>
		<path class="st27" d="M1080.9648438,1718.6490479c150.37854,0,428.2261963,11.4178467,573.8967285,31.1962891
			c58.2322998,7.9278564,95.2950439,17.1907959,95.2950439,27.5628662c0,36.2819824-457.1795654,72.6279297-669.1917725,72.6279297
			c-212.0113525,0-605.5314941-36.3459473-605.5314941-72.6279297
			C475.4333191,1741.1265869,868.9534912,1718.6490479,1080.9648438,1718.6490479z"/>
		<path class="st28" d="M1081.1055908,1718.9521484c150.0930176,0,426.2567139,11.3631592,571.0667725,31.0332031
			c57.9519043,7.8939209,94.8182373,17.1173096,94.8182373,27.4423828c0,36.0877686-454.1542969,72.208374-665.8850098,72.208374
			c-211.7299194,0-602.848877-36.1206055-602.848877-72.208374
			C478.2566833,1741.34021,869.3756714,1718.9521484,1081.1055908,1718.9521484z"/>
		<path class="st29" d="M1081.2462158,1719.255249c149.8077393,0,424.2872314,11.3085938,568.2369385,30.8702393
			c57.6715088,7.8599854,94.3414307,17.0435791,94.3414307,27.3217773c0,35.8935547-451.1290283,71.7886963-662.5783691,71.7886963
			c-211.4483643,0-600.1661377-35.8951416-600.1661377-71.7886963
			C481.0800476,1741.5539551,869.7978516,1719.255249,1081.2462158,1719.255249z"/>
		<path class="st30" d="M1081.3869629,1719.5583496c149.5222168,0,422.317749,11.2539062,565.4071045,30.7072754
			c57.3909912,7.8260498,93.8643799,16.9699707,93.8643799,27.2010498c0,35.6993408-448.1036377,71.3692627-659.2714844,71.3692627
			c-211.1669922,0-597.4835205-35.6699219-597.4835205-71.3692627
			C483.9034119,1741.7675781,870.2199707,1719.5583496,1081.3869629,1719.5583496z"/>
		<path class="st31" d="M1081.52771,1719.8614502c149.2366943,0,420.3481445,11.1993408,562.5771484,30.5443115
			c57.1107178,7.7919922,93.3875732,16.8963623,93.3875732,27.0804443c0,35.505127-445.0783691,70.949585-655.9647217,70.949585
			c-210.8855591,0-594.8009033-35.444458-594.8009033-70.949585
			C486.7267761,1741.9813232,870.6421509,1719.8614502,1081.52771,1719.8614502z"/>
		<path class="st32" d="M1081.668335,1720.1645508c148.951416,0,418.3787842,11.1446533,559.7474365,30.3812256
			c56.8302002,7.7581787,92.9106445,16.822876,92.9106445,26.9599609c0,35.3109131-442.0531006,70.5300293-652.6580811,70.5300293
			c-210.6040039,0-592.1181641-35.2191162-592.1181641-70.5300293
			C489.5501404,1742.1949463,871.0643311,1720.1645508,1081.668335,1720.1645508z"/>
		<path class="st33" d="M1081.809082,1720.4676514c148.6658936,0,416.4093018,11.0900879,556.9174805,30.2182617
			c56.5498047,7.7242432,92.4337158,16.7492676,92.4337158,26.8392334c0,35.1168213-439.02771,70.1104736-649.3511963,70.1104736
			c-210.3226318,0-589.4355469-34.9936523-589.4355469-70.1104736
			C492.3735046,1742.4085693,871.4864502,1720.4676514,1081.809082,1720.4676514z"/>
		<path class="st34" d="M1081.9498291,1720.770752c148.3804932,0,414.4396973,11.0354004,554.0876465,30.0552979
			c56.2692871,7.6901855,91.9567871,16.6756592,91.9567871,26.7186279c0,34.9226074-436.0024414,69.6907959-646.0444336,69.6907959
			c-210.0411987,0-586.7529297-34.7681885-586.7529297-69.6907959
			C495.1968689,1742.6223145,871.9086304,1720.770752,1081.9498291,1720.770752z"/>
		<path class="st35" d="M1082.0904541,1721.0738525c148.0950928,0,412.4703369,10.9807129,551.2578125,29.892334
			c55.9890137,7.65625,91.4799805,16.6019287,91.4799805,26.5980225c0,34.7283936-432.9771729,69.2712402-642.737793,69.2712402
			c-209.7597046,0-584.0701904-34.5428467-584.0701904-69.2712402
			C498.0202332,1742.8359375,872.3307495,1721.0738525,1082.0904541,1721.0738525z"/>
		<path class="st36" d="M1082.2312012,1721.3769531c147.8095703,0,410.5007324,10.9261475,548.4278564,29.7293701
			c55.7086182,7.6223145,91.0031738,16.5283203,91.0031738,26.4772949c0,34.5343018-429.9519043,68.8516846-639.4310303,68.8516846
			c-209.4782715,0-581.3875732-34.3173828-581.3875732-68.8516846
			C500.8435974,1743.0496826,872.7529297,1721.3769531,1082.2312012,1721.3769531z"/>
		<path class="st37" d="M1082.3719482,1721.6800537c147.5241699,0,408.53125,10.87146,545.5980225,29.5662842
			c55.4281006,7.5883789,90.526123,16.454834,90.526123,26.3568115c0,34.3400879-426.9263916,68.4321289-636.1241455,68.4321289
			c-209.1968384,0-578.7050171-34.092041-578.7050171-68.4321289
			C503.6669312,1743.2633057,873.1751099,1721.6800537,1082.3719482,1721.6800537z"/>
		<path class="st38" d="M1082.5125732,1721.9831543c147.2387695,0,406.5618896,10.8168945,542.7681885,29.4033203
			c55.1477051,7.5544434,90.0493164,16.3812256,90.0493164,26.236084c0,34.145874-423.901123,68.0125732-632.8175049,68.0125732
			c-208.9153442,0-576.0222778-33.8666992-576.0222778-68.0125732
			C506.4902954,1743.4769287,873.597229,1721.9831543,1082.5125732,1721.9831543z"/>
		<path class="st39" d="M1082.6533203,1722.2862549c146.9532471,0,404.5922852,10.762207,539.9383545,29.2403564
			c54.8671875,7.5203857,89.5723877,16.3076172,89.5723877,26.1154785c0,33.9516602-420.8758545,67.5930176-629.5107422,67.5930176
			c-208.6339111,0-573.3396606-33.6413574-573.3396606-67.5930176
			C509.3136597,1743.6906738,874.0194092,1722.2862549,1082.6533203,1722.2862549z"/>
		<path class="st40" d="M1082.7940674,1722.5893555c146.6678467,0,402.6228027,10.7076416,537.1083984,29.0773926
			c54.5869141,7.4864502,89.095459,16.2340088,89.095459,25.994873c0,33.7574463-417.8504639,67.1733398-626.2038574,67.1733398
			c-208.352478,0-570.6570435-33.4158936-570.6570435-67.1733398
			C512.1370239,1743.9042969,874.4415894,1722.5893555,1082.7940674,1722.5893555z"/>
		<path class="st41" d="M1082.9348145,1722.8924561c146.3823242,0,400.6531982,10.6529541,534.2785645,28.9144287
			c54.3063965,7.4525146,88.6185303,16.1602783,88.6185303,25.8741455c0,33.5633545-414.8251953,66.7539062-622.8970947,66.7539062
			c-208.071106,0-567.9744263-33.1905518-567.9744263-66.7539062
			C514.9603882,1744.118042,874.8637085,1722.8924561,1082.9348145,1722.8924561z"/>
		<path class="st42" d="M1083.0754395,1723.1955566c146.0969238,0,398.6838379,10.5982666,531.4487305,28.7513428
			c54.026001,7.4185791,88.1417236,16.086792,88.1417236,25.7536621c0,33.3691406-411.7999268,66.3342285-619.5904541,66.3342285
			c-207.7895508,0-565.291687-32.9650879-565.291687-66.3342285
			C517.7837524,1744.331665,875.2858887,1723.1955566,1083.0754395,1723.1955566z"/>
		<path class="st43" d="M1083.2161865,1723.4986572c145.8115234,0,396.7143555,10.5437012,528.6187744,28.5883789
			c53.7456055,7.3846436,87.6647949,16.0131836,87.6647949,25.6330566c0,33.1749268-408.7745361,65.9145508-616.2835693,65.9145508
			c-207.5081787,0-562.6090698-32.739624-562.6090698-65.9145508
			C520.6071167,1744.5454102,875.7080078,1723.4986572,1083.2161865,1723.4986572z"/>
		<path class="st44" d="M1083.3569336,1723.8017578c145.526001,0,394.744751,10.4890137,525.7889404,28.425415
			c53.4650879,7.350708,87.1878662,15.9395752,87.1878662,25.5123291c0,32.980835-405.7492676,65.4951172-612.9768066,65.4951172
			c-207.2267456,0-559.9264526-32.5142822-559.9264526-65.4951172
			C523.430481,1744.7590332,876.130188,1723.8017578,1083.3569336,1723.8017578z"/>
		<path class="st45" d="M1083.4975586,1724.1048584c145.2406006,0,392.7753906,10.4344482,522.9591064,28.2624512
			c53.1848145,7.3166504,86.7110596,15.8659668,86.7110596,25.3917236c0,32.7866211-402.723999,65.0754395-609.670166,65.0754395
			c-206.9451904,0-557.2437134-32.2888184-557.2437134-65.0754395
			C526.2538452,1744.9726562,876.5523682,1724.1048584,1083.4975586,1724.1048584z"/>
		<path class="st46" d="M1083.6383057,1724.407959c144.9552002,0,390.8057861,10.3797607,520.1292725,28.0994873
			c52.9042969,7.2827148,86.2341309,15.7923584,86.2341309,25.2709961c0,32.5924072-399.6987305,64.6560059-606.3634033,64.6560059
			c-206.6638184,0-554.5610962-32.0635986-554.5610962-64.6560059
			C529.0772095,1745.1864014,876.9744873,1724.407959,1083.6383057,1724.407959z"/>
		<path class="st47" d="M1083.7790527,1724.7110596c144.6696777,0,388.8363037,10.3250732,517.2993164,27.9364014
			c52.6239014,7.2489014,85.7572021,15.71875,85.7572021,25.1505127c0,32.3981934-396.6732178,64.2363281-603.0565186,64.2363281
			c-206.3823853,0-551.878479-31.8381348-551.878479-64.2363281
			C531.9005737,1745.4000244,877.3966675,1724.7110596,1083.7790527,1724.7110596z"/>
		<path class="st48" d="M1083.9196777,1725.0141602c144.3843994,0,386.8669434,10.2705078,514.4696045,27.7734375
			c52.3433838,7.2148438,85.2802734,15.6451416,85.2802734,25.0299072c0,32.2039795-393.6479492,63.8167725-599.7498779,63.8167725
			c-206.1008301,0-549.1957397-31.612793-549.1957397-63.8167725
			C534.723938,1745.6137695,877.8188477,1725.0141602,1083.9196777,1725.0141602z"/>
		<path class="st49" d="M1084.0604248,1725.3172607c144.098877,0,384.8973389,10.2158203,511.6396484,27.6104736
			c52.0629883,7.1809082,84.8034668,15.5715332,84.8034668,24.9091797c0,32.0098877-390.6226807,63.3972168-596.4431152,63.3972168
			c-205.819458,0-546.5131226-31.3873291-546.5131226-63.3972168
			C537.5473022,1745.8273926,878.2409668,1725.3172607,1084.0604248,1725.3172607z"/>
		<path class="st50" d="M1084.2011719,1725.6203613c143.8133545,0,382.9278564,10.1612549,508.8096924,27.4475098
			c51.7827148,7.1468506,84.3265381,15.4979248,84.3265381,24.7885742c0,31.8156738-387.59729,62.9775391-593.1362305,62.9775391
			c-205.5380249,0-543.8305054-31.1618652-543.8305054-62.9775391
			C540.3706665,1746.0410156,878.663147,1725.6203613,1084.2011719,1725.6203613z"/>
		<path class="st51" d="M1084.3417969,1725.9234619c143.5280762,0,380.9584961,10.1065674,505.9799805,27.2844238
			c51.5021973,7.1130371,83.8496094,15.4244385,83.8496094,24.6680908c0,31.62146-384.5720215,62.5579834-589.8295898,62.5579834
			c-205.2564697,0-541.1477661-30.9365234-541.1477661-62.5579834
			C543.1940308,1746.2547607,879.0853271,1725.9234619,1084.3417969,1725.9234619z"/>
		<path class="st52" d="M1084.4825439,1726.2265625c143.2425537,0,378.9888916,10.052002,503.1500244,27.12146
			c51.2218018,7.0791016,83.3728027,15.3508301,83.3728027,24.5473633c0,31.4273682-381.5467529,62.1384277-586.5228271,62.1384277
			c-204.9750977,0-538.4651489-30.7110596-538.4651489-62.1384277
			C546.017395,1746.4683838,879.5074463,1726.2265625,1084.4825439,1726.2265625z"/>
		<path class="st53" d="M1084.623291,1726.5296631c142.9570312,0,377.0194092,9.9973145,500.3201904,26.9584961
			c50.9412842,7.0450439,82.895752,15.2770996,82.895752,24.4267578c0,31.2331543-378.5213623,61.7188721-583.2159424,61.7188721
			c-204.6936646,0-535.7825317-30.4857178-535.7825317-61.7188721
			C548.8407593,1746.6821289,879.9296265,1726.5296631,1084.623291,1726.5296631z"/>
		<path class="st54" d="M1084.763916,1726.8327637c142.6717529,0,375.0499268,9.942627,497.4903564,26.7955322
			c50.6608887,7.0111084,82.4189453,15.2034912,82.4189453,24.3061523c0,31.0388184-375.4960938,61.2991943-579.9093018,61.2991943
			c-204.4121704,0-533.0997925-30.260376-533.0997925-61.2991943
			C551.6641235,1746.895752,880.3517456,1726.8327637,1084.763916,1726.8327637z"/>
		<path class="st55" d="M1084.9046631,1727.1358643c142.3862305,0,373.0804443,9.8880615,494.6605225,26.6325684
			c50.3804932,6.9771729,81.9420166,15.1298828,81.9420166,24.1854248c0,30.8447266-372.4708252,60.8797607-576.6025391,60.8797607
			c-204.1307373,0-530.4171753-30.0350342-530.4171753-60.8797607
			C554.4874878,1747.109375,880.7739258,1727.1358643,1084.9046631,1727.1358643z"/>
		<path class="st56" d="M1085.0454102,1727.4389648c142.100708,0,371.1109619,9.833374,491.8305664,26.4694824
			c50.1000977,6.9432373,81.46521,15.0563965,81.46521,24.0649414c0,30.6505127-369.4455566,60.460083-573.2957764,60.460083
			c-203.8493042,0-527.7345581-29.8095703-527.7345581-60.460083
			C557.3108521,1747.3231201,881.196106,1727.4389648,1085.0454102,1727.4389648z"/>
		<path class="st57" d="M1085.1860352,1727.7420654c141.8154297,0,369.1414795,9.7788086,489.0007324,26.3065186
			c49.8197021,6.9093018,80.9882812,14.9827881,80.9882812,23.9442139c0,30.4564209-366.420166,60.0406494-569.9890137,60.0406494
			c-203.5678101,0-525.0518188-29.5842285-525.0518188-60.0406494
			C560.1342163,1747.5367432,881.6182251,1727.7420654,1085.1860352,1727.7420654z"/>
		<path class="st58" d="M1085.3267822,1728.045166c141.5299072,0,367.1719971,9.7241211,486.1708984,26.1435547
			c49.5391846,6.8752441,80.5113525,14.9090576,80.5113525,23.8236084c0,30.262207-363.3947754,59.6209717-566.682251,59.6209717
			c-203.286377,0-522.3692017-29.3587646-522.3692017-59.6209717
			C562.9575806,1747.7504883,882.0404053,1728.045166,1085.3267822,1728.045166z"/>
		<path class="st59" d="M1085.4675293,1728.3482666c141.2445068,0,365.2023926,9.6695557,483.3409424,25.9805908
			c49.2589111,6.8413086,80.0345459,14.8354492,80.0345459,23.7030029c0,30.0679932-360.3695068,59.2012939-563.3754883,59.2012939
			c-203.0049438,0-519.6865845-29.1333008-519.6865845-59.2012939
			C565.7809448,1747.9641113,882.4625854,1728.3482666,1085.4675293,1728.3482666z"/>
		<path class="st60" d="M1085.6082764,1728.6513672c140.9589844,0,363.2329102,9.6148682,480.5111084,25.817627
			c48.9783936,6.807373,79.5574951,14.7618408,79.5574951,23.5822754c0,29.8739014-357.3441162,58.7818604-560.0686035,58.7818604
			c-202.7235718,0-517.0039673-28.907959-517.0039673-58.7818604
			C568.6043091,1748.1777344,882.8847046,1728.6513672,1085.6082764,1728.6513672z"/>
		<path class="st61" d="M1085.7489014,1728.9544678c140.673584,0,361.2635498,9.5601807,477.6812744,25.654541
			c48.697998,6.7734375,79.0806885,14.6883545,79.0806885,23.461792c0,29.6796875-354.3188477,58.3621826-556.7619629,58.3621826
			c-202.4420166,0-514.321228-28.6824951-514.321228-58.3621826
			C571.4276733,1748.3914795,883.3068848,1728.9544678,1085.7489014,1728.9544678z"/>
		<path class="st62" d="M1085.8896484,1729.2575684c140.3881836,0,359.2939453,9.5056152,474.8513184,25.4915771
			c48.4176025,6.739502,78.6038818,14.6147461,78.6038818,23.3411865c0,29.4853516-351.2935791,57.942627-553.4552002,57.942627
			c-202.1605835,0-511.6386108-28.4572754-511.6386108-57.942627
			C574.2510376,1748.6051025,883.7290649,1729.2575684,1085.8896484,1729.2575684z"/>
		<path class="st63" d="M1086.0303955,1729.5606689c140.1026611,0,357.3244629,9.4509277,472.0214844,25.3286133
			c48.137085,6.7055664,78.1268311,14.5411377,78.1268311,23.220459c0,29.2912598-348.2681885,57.5230713-550.1483154,57.5230713
			c-201.8792114,0-508.9559937-28.2318115-508.9559937-57.5230713
			C577.0744019,1748.8188477,884.1511841,1729.5606689,1086.0303955,1729.5606689z"/>
		<path class="st64" d="M1086.1710205,1729.8637695c139.8172607,0,355.3549805,9.3963623,469.1916504,25.1656494
			c47.8568115,6.6715088,77.6500244,14.4674072,77.6500244,23.0998535c0,29.0970459-345.2429199,57.1035156-546.8416748,57.1035156
			c-201.5976562,0-506.2732544-28.0064697-506.2732544-57.1035156
			C579.8977661,1749.0324707,884.5733643,1729.8637695,1086.1710205,1729.8637695z"/>
		<path class="st65" d="M1086.3117676,1730.1668701c139.5318604,0,353.385498,9.3416748,466.3618164,25.0025635
			c47.5762939,6.6376953,77.1730957,14.3939209,77.1730957,22.9793701c0,28.902832-342.2176514,56.6838379-543.5349121,56.6838379
			c-201.3162842,0-503.5906372-27.7810059-503.5906372-56.6838379
			C582.7211304,1749.2460938,884.9954834,1730.1668701,1086.3117676,1730.1668701z"/>
		<path class="st66" d="M1086.4525146,1730.4699707c139.2463379,0,351.4160156,9.2871094,463.5318604,24.8395996
			c47.2958984,6.6037598,76.6962891,14.3203125,76.6962891,22.8586426c0,28.7087402-339.1923828,56.2644043-540.2281494,56.2644043
			c-201.0348511,0-500.9080811-27.5556641-500.9080811-56.2644043
			C585.5444336,1749.4598389,885.4176636,1730.4699707,1086.4525146,1730.4699707z"/>
		<path class="st67" d="M1086.5931396,1730.7730713c138.9609375,0,349.4465332,9.2324219,460.7021484,24.6766357
			c47.0153809,6.5697021,76.2192383,14.2467041,76.2192383,22.7380371c0,28.5145264-336.1669922,55.8447266-536.9213867,55.8447266
			c-200.7532959,0-498.2253418-27.3302002-498.2253418-55.8447266
			C588.3677979,1749.6734619,885.8398438,1730.7730713,1086.5931396,1730.7730713z"/>
		<path class="st68" d="M1086.7338867,1731.0761719c138.6755371,0,347.4770508,9.1777344,457.8721924,24.5136719
			c46.7349854,6.5357666,75.7424316,14.1730957,75.7424316,22.6173096c0,28.3204346-333.1416016,55.4251709-533.614624,55.4251709
			c-200.4719238,0-495.5427246-27.1047363-495.5427246-55.4251709
			C591.1911621,1749.887207,886.2619629,1731.0761719,1086.7338867,1731.0761719z"/>
		<path class="st69" d="M1086.8746338,1731.3792725c138.3900146,0,345.5074463,9.1231689,455.0422363,24.350708
			c46.4547119,6.501709,75.265625,14.0994873,75.265625,22.4967041c0,28.1262207-330.116333,55.0056152-530.3078613,55.0056152
			c-200.1904907,0-492.8601074-26.8793945-492.8601074-55.0056152
			C594.0145264,1750.1008301,886.6841431,1731.3792725,1086.8746338,1731.3792725z"/>
		<path class="st70" d="M1087.0152588,1731.682373c138.1046143,0,343.5380859,9.0684814,452.2125244,24.1876221
			c46.1741943,6.4678955,74.7885742,14.0258789,74.7885742,22.3762207c0,27.9320068-327.0909424,54.5859375-527.0010986,54.5859375
			c-199.9089355,0-490.1773682-26.6539307-490.1773682-54.5859375
			C596.8378906,1750.3144531,887.1063232,1731.682373,1087.0152588,1731.682373z"/>
		<path class="st71" d="M1087.1560059,1731.9854736c137.8192139,0,341.5686035,9.013916,449.3825684,24.0246582
			c45.8937988,6.43396,74.3117676,13.9522705,74.3117676,22.2554932c0,27.737793-324.0656738,54.1665039-523.6943359,54.1665039
			c-199.6275635,0-487.494751-26.4287109-487.494751-54.1665039
			C599.6612549,1750.5281982,887.5284424,1731.9854736,1087.1560059,1731.9854736z"/>
		<path class="st72" d="M1087.2967529,1732.2885742c137.5336914,0,339.598999,8.9592285,446.5527344,23.8616943
			c45.6132812,6.3999023,73.8348389,13.8786621,73.8348389,22.1348877c0,27.5435791-321.0404053,53.7468262-520.3875732,53.7468262
			c-199.3461304,0-484.8121338-26.2032471-484.8121338-53.7468262
			C602.4846191,1750.7418213,887.9506226,1732.2885742,1087.2967529,1732.2885742z"/>
		<path class="st73" d="M1087.4373779,1732.5916748c137.2484131,0,337.6296387,8.9046631,443.7229004,23.6987305
			c45.3328857,6.3659668,73.3579102,13.8050537,73.3579102,22.0142822c0,27.3493652-318.0150146,53.3272705-517.0808105,53.3272705
			c-199.0645752,0-482.1293945-25.9779053-482.1293945-53.3272705
			C605.3079834,1750.9555664,888.3728027,1732.5916748,1087.4373779,1732.5916748z"/>
		<path class="st74" d="M1087.578125,1732.8947754c136.9628906,0,335.6600342,8.8499756,440.8930664,23.5357666
			c45.0524902,6.3320312,72.8809814,13.7314453,72.8809814,21.8935547c0,27.1552734-314.9897461,52.9077148-513.7740479,52.9077148
			c-198.7832031,0-479.4467773-25.7524414-479.4467773-52.9077148
			C608.1313477,1751.1691895,888.7949219,1732.8947754,1087.578125,1732.8947754z"/>
		<path class="st75" d="M1087.7188721,1733.197876c136.6773682,0,333.6905518,8.7952881,438.0631104,23.3726807
			c44.7720947,6.2980957,72.4041748,13.657959,72.4041748,21.7730713c0,26.9610596-311.9644775,52.4880371-510.4672852,52.4880371
			c-198.50177,0-476.7641602-25.5269775-476.7641602-52.4880371
			C610.9547119,1751.3829346,889.2171021,1733.197876,1087.7188721,1733.197876z"/>
		<path class="st76" d="M1087.8594971,1733.5009766c136.3920898,0,331.7211914,8.7407227,435.2332764,23.2097168
			c44.4916992,6.2641602,71.9273682,13.5842285,71.9273682,21.6524658c0,26.7668457-308.939209,52.0684814-507.1606445,52.0684814
			c-198.2202759,0-474.0814209-25.3016357-474.0814209-52.0684814
			C613.7780762,1751.5965576,889.6392212,1733.5009766,1087.8594971,1733.5009766z"/>
		<path class="st77" d="M1088.0002441,1733.8040771c136.1065674,0,329.7515869,8.6860352,432.4034424,23.0467529
			c44.2111816,6.2302246,71.4503174,13.5106201,71.4503174,21.5317383c0,26.5727539-305.9138184,51.6489258-503.8537598,51.6489258
			c-197.9388428,0-471.3988037-25.0761719-471.3988037-51.6489258
			C616.6014404,1751.8101807,890.0614014,1733.8040771,1088.0002441,1733.8040771z"/>
		<path class="st78" d="M1088.1409912,1734.1071777c135.8210449,0,327.7821045,8.6314697,429.5734863,22.8837891
			c43.9307861,6.196167,70.9735107,13.4370117,70.9735107,21.4111328c0,26.37854-302.8884277,51.2293701-500.5469971,51.2293701
			c-197.6574097,0-468.7161865-24.8508301-468.7161865-51.2293701
			C619.4248047,1752.0239258,890.4835815,1734.1071777,1088.1409912,1734.1071777z"/>
		<path class="st79" d="M1088.2817383,1734.4102783c135.5356445,0,325.8125,8.5767822,426.7436523,22.7208252
			c43.6503906,6.1622314,70.496582,13.3634033,70.496582,21.2904053c0,26.1843262-299.8631592,50.8098145-497.2402344,50.8098145
			c-197.3760376,0-466.0335693-24.6254883-466.0335693-50.8098145
			C622.2481689,1752.2375488,890.9057007,1734.4102783,1088.2817383,1734.4102783z"/>
		<path class="st80" d="M1088.4223633,1734.7133789c135.2502441,0,323.8431396,8.5222168,423.9138184,22.5577393
			c43.3699951,6.1282959,70.0196533,13.289917,70.0196533,21.1699219c0,25.9901123-296.8377686,50.3902588-493.9334717,50.3902588
			c-197.0944824,0-463.3508301-24.4001465-463.3508301-50.3902588
			C625.0715332,1752.4512939,891.3278809,1734.7133789,1088.4223633,1734.7133789z"/>
		<path class="st81" d="M1088.5631104,1735.0164795c134.9647217,0,321.8736572,8.4675293,421.0839844,22.3947754
			c43.0894775,6.0943604,69.5427246,13.2163086,69.5427246,21.0493164c0,25.7958984-293.8125,49.9705811-490.626709,49.9705811
			c-196.8130493,0-460.6682129-24.1746826-460.6682129-49.9705811
			C627.8948975,1752.664917,891.750061,1735.0164795,1088.5631104,1735.0164795z"/>
		<path class="st82" d="M1088.7038574,1735.3195801c134.6793213,0,319.9040527,8.4128418,418.2540283,22.2318115
			c42.809082,6.0604248,69.065918,13.1425781,69.065918,20.9285889c0,25.6018066-290.7872314,49.5511475-487.3199463,49.5511475
			c-196.5316772,0-457.9855957-23.9493408-457.9855957-49.5511475
			C630.7182617,1752.87854,892.1721802,1735.3195801,1088.7038574,1735.3195801z"/>
		<path class="st83" d="M1088.8444824,1735.6226807c134.3939209,0,317.9346924,8.3582764,415.4241943,22.0688477
			c42.5288086,6.0263672,68.5889893,13.0689697,68.5889893,20.8079834c0,25.4075928-287.7618408,49.1314697-484.0131836,49.1314697
			c-196.2501221,0-455.3028564-23.723877-455.3028564-49.1314697
			C633.541626,1753.0922852,892.5943604,1735.6226807,1088.8444824,1735.6226807z"/>
		<path class="st84" d="M1088.9852295,1735.9257812c134.1083984,0,315.96521,8.3035889,412.5943604,21.9057617
			c42.248291,5.9925537,68.1120605,12.9954834,68.1120605,20.6875c0,25.2133789-284.7365723,48.711792-480.7064209,48.711792
			c-195.96875,0-452.6202393-23.4984131-452.6202393-48.711792
			C636.3649902,1753.3059082,893.0164795,1735.9257812,1088.9852295,1735.9257812z"/>
		<path class="st85" d="M1089.1259766,1736.2288818c133.822998,0,313.9956055,8.2490234,409.7644043,21.7427979
			c41.9678955,5.9586182,67.6352539,12.921875,67.6352539,20.5667725c0,25.0192871-281.7113037,48.2923584-477.3996582,48.2923584
			c-195.6873169,0-449.9376221-23.2730713-449.9376221-48.2923584
			C639.1883545,1753.5196533,893.4386597,1736.2288818,1089.1259766,1736.2288818z"/>
		<path class="st86" d="M1089.2666016,1736.5319824c133.5375977,0,312.0262451,8.1943359,406.9346924,21.579834
			c41.6873779,5.9245605,67.1583252,12.8482666,67.1583252,20.446167c0,24.8250732-278.6860352,47.8726807-474.0930176,47.8726807
			c-195.4057617,0-447.2548828-23.0476074-447.2548828-47.8726807
			C642.0117188,1753.7332764,893.8608398,1736.5319824,1089.2666016,1736.5319824z"/>
		<path class="st87" d="M1089.4073486,1736.835083c133.2521973,0,310.0566406,8.1397705,404.1047363,21.4168701
			c41.4069824,5.890625,66.6813965,12.7746582,66.6813965,20.3255615c0,24.6307373-275.6606445,47.453125-470.7861328,47.453125
			c-195.1243896,0-444.5722656-22.8223877-444.5722656-47.453125
			C644.835083,1753.9468994,894.282959,1736.835083,1089.4073486,1736.835083z"/>
		<path class="st88" d="M1089.5480957,1737.1381836c132.9666748,0,308.0871582,8.085083,401.2749023,21.2539062
			c41.1265869,5.8566895,66.2044678,12.7009277,66.2044678,20.204834c0,24.4366455-272.6352539,47.0335693-467.4793701,47.0335693
			c-194.8429565,0-441.8896484-22.5969238-441.8896484-47.0335693
			C647.6584473,1754.1606445,894.7051392,1737.1381836,1089.5480957,1737.1381836z"/>
		<path class="st89" d="M1089.6887207,1737.4412842c132.6812744,0,306.1177979,8.0303955,398.4450684,21.0908203
			c40.8461914,5.8227539,65.7276611,12.6274414,65.7276611,20.0843506c0,24.2424316-269.6099854,46.6140137-464.1727295,46.6140137
			c-194.5614014,0-439.2069092-22.371582-439.2069092-46.6140137
			C650.4818115,1754.3742676,895.1273193,1737.4412842,1089.6887207,1737.4412842z"/>
		<path class="st90" d="M1089.8294678,1737.7443848c132.395874,0,304.1481934,7.9758301,395.6151123,20.9278564
			c40.5657959,5.7888184,65.2507324,12.553833,65.2507324,19.963623c0,24.0483398-266.5845947,46.194458-460.8658447,46.194458
			c-194.2800293,0-436.524292-22.1461182-436.524292-46.194458
			C653.3051758,1754.5880127,895.5494385,1737.7443848,1089.8294678,1737.7443848z"/>
		<path class="st91" d="M1089.9702148,1738.0474854c132.1103516,0,302.1787109,7.9211426,392.7852783,20.7648926
			c40.2852783,5.7547607,64.7738037,12.4802246,64.7738037,19.8430176c0,23.854126-263.5593262,45.7747803-457.559082,45.7747803
			c-193.9985962,0-433.8416748-21.9206543-433.8416748-45.7747803
			C656.12854,1754.8016357,895.9716187,1738.0474854,1089.9702148,1738.0474854z"/>
		<path class="st92" d="M1090.1108398,1738.3505859c131.8249512,0,300.2092285,7.8665771,389.9554443,20.6019287
			c40.0048828,5.7208252,64.2969971,12.4066162,64.2969971,19.7224121c0,23.6599121-260.5340576,45.3552246-454.2524414,45.3552246
			c-193.717041,0-431.1589355-21.6953125-431.1589355-45.3552246
			C658.9519043,1755.0152588,896.3937988,1738.3505859,1090.1108398,1738.3505859z"/>
		<path class="st93" d="M1090.2515869,1738.6536865c131.5395508,0,298.2397461,7.8118896,387.1256104,20.4389648
			c39.7244873,5.6868896,63.8199463,12.3330078,63.8199463,19.6016846c0,23.4658203-257.508667,44.9356689-450.9455566,44.9356689
			c-193.4356689,0-428.4763184-21.4698486-428.4763184-44.9356689
			C661.7752686,1755.2290039,896.815918,1738.6536865,1090.2515869,1738.6536865z"/>
		<path class="st94" d="M1090.392334,1738.9567871c131.2540283,0,296.2702637,7.7572021,384.2956543,20.2758789
			c39.4440918,5.6529541,63.3431396,12.2593994,63.3431396,19.4812012c0,23.2716064-254.4833984,44.5161133-447.6387939,44.5161133
			c-193.1542358,0-425.7937012-21.2445068-425.7937012-44.5161133
			C664.5986328,1755.442627,897.2380981,1738.9567871,1090.392334,1738.9567871z"/>
		<path class="st95" d="M1090.532959,1739.2598877c130.9686279,0,294.3007812,7.7026367,381.4659424,20.112915
			c39.1635742,5.6190186,62.8662109,12.185791,62.8662109,19.3605957c0,23.0772705-251.4581299,44.0964355-444.3321533,44.0964355
			c-192.8727417,0-423.1109619-21.019165-423.1109619-44.0964355
			C667.4219971,1755.6563721,897.6602173,1739.2598877,1090.532959,1739.2598877z"/>
		<path class="st96" d="M1090.6737061,1739.5629883c130.6832275,0,292.3312988,7.6479492,378.6359863,19.9499512
			c38.8831787,5.585083,62.3894043,12.1121826,62.3894043,19.2398682c0,22.8831787-248.4328613,43.677002-441.0253906,43.677002
			c-192.5913086,0-420.4283447-20.7938232-420.4283447-43.677002
			C670.2453613,1755.8699951,898.0823975,1739.5629883,1090.6737061,1739.5629883z"/>
		<path class="st97" d="M1090.8144531,1739.8660889c130.3977051,0,290.3616943,7.5933838,375.8060303,19.7869873
			c38.6027832,5.5510254,61.9124756,12.0385742,61.9124756,19.1192627c0,22.6889648-245.4074707,43.2573242-437.7185059,43.2573242
			c-192.3098755,0-417.7457275-20.5683594-417.7457275-43.2573242
			C673.0687256,1756.0836182,898.5045776,1739.8660889,1090.8144531,1739.8660889z"/>
		<path class="st98" d="M1090.9552002,1740.1691895c130.1123047,0,288.3922119,7.5386963,372.9761963,19.6239014
			c38.3223877,5.5172119,61.4355469,11.9650879,61.4355469,18.9987793c0,22.494751-242.3822021,42.8377686-434.4117432,42.8377686
			c-192.0285034,0-415.0631104-20.3430176-415.0631104-42.8377686
			C675.8920898,1756.2973633,898.9266968,1740.1691895,1090.9552002,1740.1691895z"/>
		<path class="st99" d="M1091.0958252,1740.47229c129.8269043,0,286.4228516,7.4841309,370.1463623,19.4609375
			c38.0419922,5.4832764,60.9587402,11.8914795,60.9587402,18.8780518c0,22.3006592-239.3568115,42.4182129-431.1051025,42.4182129
			c-191.7469482,0-412.3803711-20.1175537-412.3803711-42.4182129
			C678.7154541,1756.5109863,899.348877,1740.47229,1091.0958252,1740.47229z"/>
		<path class="st100" d="M1091.2365723,1740.7753906c129.5413818,0,284.4532471,7.4294434,367.3165283,19.2979736
			c37.7614746,5.4492188,60.4816895,11.817749,60.4816895,18.7574463c0,22.1064453-236.3314209,41.9985352-427.7982178,41.9985352
			c-191.4655151,0-409.6977539-19.8920898-409.6977539-41.9985352
			C681.5388184,1756.7247314,899.7710571,1740.7753906,1091.2365723,1740.7753906z"/>
		<path class="st101" d="M1091.3773193,1741.0784912c129.2559814,0,282.4837646,7.3747559,364.4865723,19.1350098
			c37.4810791,5.4152832,60.0048828,11.7441406,60.0048828,18.6367188c0,21.9123535-233.3061523,41.5791016-424.4914551,41.5791016
			c-191.1841431,0-407.0151367-19.666748-407.0151367-41.5791016
			C684.3621826,1756.9383545,900.1931763,1741.0784912,1091.3773193,1741.0784912z"/>
		<path class="st102" d="M1091.5179443,1741.3815918c128.9705811,0,280.5142822,7.3201904,361.6567383,18.9720459
			c37.2008057,5.3812256,59.5280762,11.6705322,59.5280762,18.5161133c0,21.7181396-230.2808838,41.1594238-421.1848145,41.1594238
			c-190.9025879,0-404.3323975-19.4412842-404.3323975-41.1594238
			C687.1855469,1757.1519775,900.6153564,1741.3815918,1091.5179443,1741.3815918z"/>
		<path class="st103" d="M1091.6586914,1741.6846924c128.6850586,0,278.5447998,7.2655029,358.8269043,18.80896
			c36.9202881,5.3474121,59.0510254,11.5970459,59.0510254,18.3956299c0,21.5238037-227.2554932,40.7398682-417.8779297,40.7398682
			c-190.6211548,0-401.6497803-19.2160645-401.6497803-40.7398682
			C690.0089111,1757.3657227,901.0375366,1741.6846924,1091.6586914,1741.6846924z"/>
		<path class="st104" d="M1091.7994385,1741.987793c128.3996582,0,276.5753174,7.2109375,355.9969482,18.6459961
			c36.6398926,5.3134766,58.5742188,11.5234375,58.5742188,18.2749023c0,21.3297119-224.2302246,40.3203125-414.571167,40.3203125
			c-190.3397827,0-398.9672241-18.9906006-398.9672241-40.3203125
			C692.8322144,1757.5793457,901.4596558,1741.987793,1091.7994385,1741.987793z"/>
		<path class="st105" d="M1091.9400635,1742.2908936c128.1142578,0,274.605835,7.15625,353.1672363,18.4830322
			c36.359375,5.2794189,58.09729,11.4498291,58.09729,18.1542969c0,21.135498-221.2049561,39.9007568-411.2645264,39.9007568
			c-190.0582275,0-396.2844849-18.7652588-396.2844849-39.9007568
			C695.6555786,1757.7930908,901.8818359,1742.2908936,1091.9400635,1742.2908936z"/>
		<path class="st106" d="M1092.0808105,1742.5939941c127.8287354,0,272.6363525,7.1016846,350.3372803,18.3200684
			c36.0789795,5.2454834,57.6204834,11.3760986,57.6204834,18.0336914c0,20.9412842-218.1796875,39.4810791-407.9577637,39.4810791
			c-189.7768555,0-393.6018677-18.5397949-393.6018677-39.4810791
			C698.4789429,1758.0067139,902.3039551,1742.5939941,1092.0808105,1742.5939941z"/>
		<path class="st107" d="M1092.2215576,1742.8970947c127.543335,0,270.666748,7.0469971,347.5074463,18.1571045
			c35.798584,5.2115479,57.1434326,11.3024902,57.1434326,17.9129639c0,20.7471924-215.1542969,39.0615234-404.6508789,39.0615234
			c-189.4954224,0-390.9192505-18.3143311-390.9192505-39.0615234
			C701.3023071,1758.220459,902.7261353,1742.8970947,1092.2215576,1742.8970947z"/>
		<path class="st108" d="M1092.3621826,1743.2001953c127.2579346,0,268.6973877,6.9923096,344.6776123,17.9940186
			c35.5181885,5.1776123,56.666626,11.2290039,56.666626,17.7924805c0,20.5529785-212.1290283,38.6419678-401.3442383,38.6419678
			c-189.2138672,0-388.2365112-18.0889893-388.2365112-38.6419678
			C704.1256714,1758.434082,903.1483154,1743.2001953,1092.3621826,1743.2001953z"/>
		<path class="st109" d="M1092.5029297,1743.5032959c126.9724121,0,266.7279053,6.9377441,341.8476562,17.8310547
			c35.237793,5.1436768,56.1898193,11.1553955,56.1898193,17.671875c0,20.3587646-209.1036377,38.22229-398.0374756,38.22229
			c-188.9324951,0-385.553894-17.8635254-385.553894-38.22229
			C706.9490356,1758.6477051,903.5704346,1743.5032959,1092.5029297,1743.5032959z"/>
		<path class="st110" d="M1092.6436768,1743.8063965c126.6870117,0,264.7583008,6.8830566,339.0178223,17.6680908
			c34.9572754,5.1097412,55.7127686,11.0817871,55.7127686,17.5511475c0,20.1646729-206.0782471,37.8028564-394.7305908,37.8028564
			c-188.651062,0-382.8712769-17.6381836-382.8712769-37.8028564
			C709.7723999,1758.8614502,903.9926147,1743.8063965,1092.6436768,1743.8063965z"/>
		<path class="st111" d="M1092.7843018,1744.1094971c126.4016113,0,262.7889404,6.8284912,336.1879883,17.505127
			c34.6768799,5.0756836,55.2359619,11.0081787,55.2359619,17.430542c0,19.9703369-203.0529785,37.3831787-391.4239502,37.3831787
			c-188.3695068,0-380.1885376-17.4128418-380.1885376-37.3831787
			C712.5957642,1759.0750732,904.4147949,1744.1094971,1092.7843018,1744.1094971z"/>
		<path class="st112" d="M1092.9250488,1744.4125977c126.1162109,0,260.8193359,6.7738037,333.3581543,17.3421631
			c34.3964844,5.041748,54.7590332,10.9344482,54.7590332,17.3098145c0,19.7762451-200.02771,36.9637451-388.1171875,36.9637451
			c-188.0881348,0-377.5059204-17.1875-377.5059204-36.9637451
			C715.4191284,1759.2888184,904.8369141,1744.4125977,1092.9250488,1744.4125977z"/>
		<path class="st113" d="M1093.0657959,1744.7156982c125.8306885,0,258.8498535,6.7192383,330.5281982,17.1790771
			c34.1160889,5.0078125,54.2821045,10.8609619,54.2821045,17.1893311c0,19.5820312-197.0023193,36.5440674-384.8103027,36.5440674
			c-187.8067017,0-374.8233032-16.9620361-374.8233032-36.5440674
			C718.2424927,1759.5024414,905.2590942,1744.7156982,1093.0657959,1744.7156982z"/>
		<path class="st114" d="M1093.2064209,1745.0187988c125.5452881,0,256.8804932,6.6645508,327.6984863,17.0161133
			c33.8355713,4.973877,53.8051758,10.7873535,53.8051758,17.0687256c0,19.3878174-193.9770508,36.1245117-381.5036621,36.1245117
			c-187.5252075,0-372.140564-16.7366943-372.140564-36.1245117
			C721.0658569,1759.7160645,905.6812134,1745.0187988,1093.2064209,1745.0187988z"/>
		<path class="st115" d="M1093.347168,1745.3218994c125.2598877,0,254.9108887,6.6098633,324.8685303,16.8531494
			c33.5551758,4.9399414,53.3283691,10.7137451,53.3283691,16.947998c0,19.1937256-190.9517822,35.7049561-378.1968994,35.7049561
			c-187.2437744,0-369.4579468-16.5112305-369.4579468-35.7049561
			C723.8892212,1759.9298096,906.1033936,1745.3218994,1093.347168,1745.3218994z"/>
		<path class="st116" d="M1093.487915,1745.625c124.9743652,0,252.9414062,6.5552979,322.0385742,16.6901855
			c33.2747803,4.9058838,52.8514404,10.6401367,52.8514404,16.8273926c0,18.9995117-187.9263916,35.2852783-374.8900146,35.2852783
			c-186.9623413,0-366.7753296-16.2857666-366.7753296-35.2852783
			C726.7125854,1760.1434326,906.5255737,1745.625,1093.487915,1745.625z"/>
		<path class="st117" d="M1093.6286621,1745.9281006c124.6888428,0,250.9718018,6.5006104,319.2087402,16.5270996
			c32.9943848,4.8720703,52.3745117,10.5666504,52.3745117,16.7069092c0,18.8052979-184.901123,34.8657227-371.583252,34.8657227
			c-186.6809692,0-364.0927124-16.0604248-364.0927124-34.8657227
			C729.5359497,1760.3571777,906.9476929,1745.9281006,1093.6286621,1745.9281006z"/>
		<path class="st118" d="M1093.7692871,1746.2312012c124.4035645,0,249.0024414,6.4460449,316.3789062,16.3641357
			c32.7139893,4.8381348,51.8977051,10.4929199,51.8977051,16.5861816c0,18.6112061-181.8758545,34.446167-368.2766113,34.446167
			c-186.3994141,0-361.4099731-15.8349609-361.4099731-34.446167
			C732.359314,1760.5708008,907.369873,1746.2312012,1093.7692871,1746.2312012z"/>
		<path class="st119" d="M1093.9100342,1746.5343018c124.118042,0,247.032959,6.3913574,313.5490723,16.2011719
			c32.4334717,4.8040771,51.4207764,10.4193115,51.4207764,16.4655762c0,18.4168701-178.8504639,34.0266113-364.9698486,34.0266113
			c-186.117981,0-358.727356-15.6097412-358.727356-34.0266113
			C735.1826782,1760.7844238,907.7920532,1746.5343018,1093.9100342,1746.5343018z"/>
		<path class="st120" d="M1094.0507812,1746.8374023c123.8325195,0,245.0633545,6.336792,310.7191162,16.038208
			c32.1530762,4.7701416,50.9438477,10.3457031,50.9438477,16.3448486c0,18.2227783-175.8250732,33.6070557-361.6629639,33.6070557
			c-185.8366089,0-356.0447388-15.3842773-356.0447388-33.6070557
			C738.0060425,1760.9981689,908.2141724,1746.8374023,1094.0507812,1746.8374023z"/>
		<path class="st121" d="M1094.1914062,1747.1405029c123.5472412,0,243.0939941,6.2821045,307.8894043,15.8752441
			c31.8725586,4.736084,50.4669189,10.2720947,50.4669189,16.2242432c0,18.0285645-172.7998047,33.1875-358.3563232,33.1875
			c-185.5550537,0-353.3619995-15.1589355-353.3619995-33.1875
			C740.8294067,1761.211792,908.6363525,1747.1405029,1094.1914062,1747.1405029z"/>
		<path class="st122" d="M1094.3321533,1747.4436035c123.2617188,0,241.1245117,6.227417,305.0594482,15.7121582
			c31.5922852,4.7022705,49.9901123,10.1986084,49.9901123,16.1037598c0,17.8343506-169.7745361,32.7678223-355.0495605,32.7678223
			c-185.2736206,0-350.6793823-14.9334717-350.6793823-32.7678223
			C743.652771,1761.4255371,909.0585327,1747.4436035,1094.3321533,1747.4436035z"/>
		<path class="st123" d="M1094.4729004,1747.7467041c122.9761963,0,239.1549072,6.1728516,302.2294922,15.5491943
			c31.3118896,4.668335,49.5131836,10.125,49.5131836,15.9830322c0,17.6402588-166.7491455,32.3482666-351.7426758,32.3482666
			c-184.9922485,0-347.9967651-14.7080078-347.9967651-32.3482666
			C746.4761353,1761.6391602,909.4806519,1747.7467041,1094.4729004,1747.7467041z"/>
		<path class="st124" d="M1094.6135254,1748.0498047c122.690918,0,237.1855469,6.1181641,299.3997803,15.3862305
			c31.0313721,4.6342773,49.0362549,10.0512695,49.0362549,15.8624268c0,17.4460449-163.723877,31.9287109-348.4360352,31.9287109
			c-184.7106934,0-345.3140259-14.482666-345.3140259-31.9287109
			C749.2994995,1761.8527832,909.902832,1748.0498047,1094.6135254,1748.0498047z"/>
		<path class="st125" d="M1094.7542725,1748.3529053c122.4053955,0,235.2159424,6.0635986,296.5698242,15.2232666
			c30.7509766,4.6003418,48.5594482,9.9776611,48.5594482,15.7418213c0,17.2518311-160.6986084,31.5090332-345.1292725,31.5090332
			c-184.4293213,0-342.6314087-14.2572021-342.6314087-31.5090332
			C752.1228638,1762.0665283,910.3249512,1748.3529053,1094.7542725,1748.3529053z"/>
		<path class="st126" d="M1094.8950195,1748.6560059c122.1199951,0,233.24646,6.0089111,293.7399902,15.0603027
			c30.4705811,4.5664062,48.0823975,9.9040527,48.0823975,15.6210938c0,17.0577393-157.6732178,31.0895996-341.8223877,31.0895996
			c-184.1478882,0-339.9487915-14.0318604-339.9487915-31.0895996
			C754.946228,1762.2801514,910.7471313,1748.6560059,1094.8950195,1748.6560059z"/>
		<path class="st127" d="M1095.0356445,1748.9591064c121.8345947,0,231.2770996,5.9543457,290.9101562,14.8972168
			c30.1901855,4.5324707,47.6055908,9.8305664,47.6055908,15.5006104c0,16.8634033-154.6479492,30.6699219-338.5157471,30.6699219
			c-183.866333,0-337.2660522-13.8065186-337.2660522-30.6699219
			C757.7695923,1762.4938965,911.1693115,1748.9591064,1095.0356445,1748.9591064z"/>
		<path class="st128" d="M1095.1763916,1749.262207c121.5490723,0,229.3074951,5.8996582,288.0803223,14.7342529
			c29.909668,4.4985352,47.1286621,9.756958,47.1286621,15.3800049c0,16.6691895-151.6226807,30.2503662-335.2089844,30.2503662
			c-183.5849609,0-334.5834351-13.5811768-334.5834351-30.2503662
			C760.5929565,1762.7075195,911.5914307,1749.262207,1095.1763916,1749.262207z"/>
		<ellipse class="st129" cx="1095.3175049" cy="1779.3959961" rx="331.9011536" ry="29.8307495"/>
	</g>
	<path class="st130" d="M2137.7023926,1498.0478516H56.2980003C25.2053986,1498.0478516,0,1472.8424072,0,1441.7498779V56.2977982
		C0,25.2054996,25.2053986,0,56.2980003,0h2081.4042969C2168.7949219,0,2194,25.2054996,2194,56.2977982v1385.4520264
		C2194,1472.8424072,2168.7949219,1498.0478516,2137.7023926,1498.0478516z"/>
	<g>
		<defs>
			
				<filter id="Adobe_OpacityMaskFilter" filterUnits="userSpaceOnUse" x="6.9867997" y="6.9868002" width="1428.7738037" height="1484.0732422">
				<feFlood  style="flood-color:white;flood-opacity:1" result="back"/>
				<feBlend  in="SourceGraphic" in2="back" mode="normal"/>
			</filter>
		</defs>
		<mask maskUnits="userSpaceOnUse" x="6.9867997" y="6.9868002" width="1428.7738037" height="1484.0732422" id="SVGID_1_">
			<g class="st131">
				<defs>
					
						<filter id="Adobe_OpacityMaskFilter_00000178192768952244051940000002309084881277347995_" filterUnits="userSpaceOnUse" x="6.9867997" y="6.9868002" width="1428.7738037" height="1484.0732422">
						<feFlood  style="flood-color:white;flood-opacity:1" result="back"/>
						<feBlend  in="SourceGraphic" in2="back" mode="normal"/>
					</filter>
				</defs>
				<mask maskUnits="userSpaceOnUse" x="6.9867997" y="6.9868002" width="1428.7738037" height="1484.0732422" id="SVGID_1_">
					<g style="filter:url(#Adobe_OpacityMaskFilter_00000178192768952244051940000002309084881277347995_);">
					</g>
				</mask>
				
					<linearGradient id="SVGID_00000108999391199681799020000015217884142098871954_" gradientUnits="userSpaceOnUse" x1="721.3737183" y1="1491.0600586" x2="721.3737183" y2="6.9868002">
					<stop  offset="0" style="stop-color:#000000"/>
					<stop  offset="0.2165003" style="stop-color:#030303"/>
					<stop  offset="0.3687664" style="stop-color:#0C0C0C"/>
					<stop  offset="0.5013199" style="stop-color:#1C1C1C"/>
					<stop  offset="0.6226317" style="stop-color:#323232"/>
					<stop  offset="0.7362664" style="stop-color:#4E4E4E"/>
					<stop  offset="0.8442208" style="stop-color:#717171"/>
					<stop  offset="0.9457182" style="stop-color:#999999"/>
					<stop  offset="1" style="stop-color:#B3B3B3"/>
				</linearGradient>
				<path style="mask:url(#SVGID_1_);fill:url(#SVGID_00000108999391199681799020000015217884142098871954_);" d="
					M56.2980003,6.9868002c-27.1905003,0-49.3111992,22.1207008-49.3111992,49.3111992v1385.4521484
					c0,27.1893311,22.1207008,49.3099365,49.3111992,49.3099365h365.9822083L1435.7606201,6.9868002H56.2980003z"/>
			</g>
		</mask>
		
			<linearGradient id="SVGID_00000084515841447103311060000011022744994465531034_" gradientUnits="userSpaceOnUse" x1="721.3737183" y1="1491.0600586" x2="721.3737183" y2="6.9868002">
			<stop  offset="0" style="stop-color:#FFFFFF"/>
			<stop  offset="0.5701082" style="stop-color:#FCFCFC"/>
			<stop  offset="0.9704509" style="stop-color:#F3F3F3"/>
			<stop  offset="1" style="stop-color:#F2F2F2"/>
		</linearGradient>
		<path style="fill:url(#SVGID_00000084515841447103311060000011022744994465531034_);" d="M56.2980003,6.9868002
			c-27.1905003,0-49.3111992,22.1207008-49.3111992,49.3111992v1385.4521484
			c0,27.1893311,22.1207008,49.3099365,49.3111992,49.3099365h365.9822083L1435.7606201,6.9868002H56.2980003z"/>
	</g>
	<g>
		
			<linearGradient id="SVGID_00000106868906020949939970000003239583905438014883_" gradientUnits="userSpaceOnUse" x1="1394.9578857" y1="2654.4562988" x2="1394.9578857" y2="1753.8482666">
			<stop  offset="0" style="stop-color:#B0B0B0"/>
			<stop  offset="1" style="stop-color:#3B3B3B"/>
		</linearGradient>
		<path style="fill:url(#SVGID_00000106868906020949939970000003239583905438014883_);" d="M1394.7022705,1783.3359375
			c-0.1765137,0.6074219-0.3087158,1.1987305-0.3701172,1.7623291c0.4160156-0.1181641,0.8518066-0.2318115,1.2513428-0.3535156
			C1395.1866455,1784.3236084,1394.8984375,1783.8503418,1394.7022705,1783.3359375z"/>
		
			<linearGradient id="SVGID_00000053540301768426416790000007605512514725510839_" gradientUnits="userSpaceOnUse" x1="798.8206787" y1="1814.149292" x2="798.8206787" y2="938.8028564">
			<stop  offset="0" style="stop-color:#B0B0B0"/>
			<stop  offset="1" style="stop-color:#3B3B3B"/>
		</linearGradient>
		<path style="fill:url(#SVGID_00000053540301768426416790000007605512514725510839_);" d="M799.3214111,1785.1091309
			c-0.0571289-0.4417725-0.1607056-0.9019775-0.2891235-1.3709717c-0.1814575,0.3901367-0.4046021,0.7615967-0.7124023,1.0928955
			C798.6398926,1784.9267578,798.9910889,1785.0157471,799.3214111,1785.1091309z"/>
		
			<linearGradient id="SVGID_00000126309206115361686890000010256226967178119050_" gradientUnits="userSpaceOnUse" x1="1096.8551025" y1="1809.2266846" x2="1096.8551025" y2="1761.9803467">
			<stop  offset="0" style="stop-color:#B0B0B0"/>
			<stop  offset="1" style="stop-color:#3B3B3B"/>
		</linearGradient>
		<path style="fill:url(#SVGID_00000126309206115361686890000010256226967178119050_);" d="M786.5123901,1792.6358643
			c0.0447998,0.0383301,0.0829468,0.0770264,0.1282959,0.1149902c0.0055542-0.0021973,0.0100098-0.0050049,0.0154419-0.0072021
			c1.305481,0.925415,2.8114014,1.8200684,4.5929565,2.6629639c-0.0014038,0.0008545-0.0028687,0.0018311-0.0042725,0.0029297
			c0.0314941,0.0153809,0.0731201,0.0300293,0.1049805,0.0454102c7.1018066,3.3339844,18.1784058,5.9038086,35.1483154,6.8125
			c0.664917,0.0355225,1.3657837,0.071167,2.0568237,0.1066895c83.789978,8.4121094,268.276001,6.7115479,268.276001,6.7115479
			s184.4858398,1.7005615,268.276123-6.7115479c0.690918-0.0355225,1.3918457-0.071167,2.0567627-0.1066895
			c15.7198486-0.8416748,26.3522949-3.1157227,33.4853516-6.095459c0.072998-0.0280762,0.1352539-0.057251,0.2067871-0.0855713
			c0.4736328-0.2006836,0.9558105-0.3991699,1.3981934-0.6060791c0.0498047-0.0239258,0.1140137-0.046875,0.1629639-0.0708008
			c-0.0026855-0.0023193-0.0063477-0.0043945-0.0090332-0.0065918c1.87854-0.8890381,3.4517822-1.8354492,4.8048096-2.8153076
			c0.0042725,0.001709,0.0075684,0.0039062,0.0114746,0.0054932c0.0391846-0.0328369,0.0722656-0.0662842,0.1109619-0.0991211
			c2.1762695-1.5980225,3.7247314-3.2886963,4.7542725-5.0089111c2.644043-3.5428467,3.9104004-7.1331787,4.3378906-10.5421143
			c-0.6223145-8.4963379-5.6574707-14.9626465-5.6574707-14.9626465s-13.53479,12.6455078-16.067749,21.3555908
			c0.196167,0.5144043,0.484375,0.9876709,0.8812256,1.4088135c-0.3995361,0.1217041-0.8353271,0.2353516-1.2513428,0.3535156
			c-0.1730957,1.5958252,0.1491699,2.9932861,1.1582031,4.0635986c-6.8457031,2.0860596-16.0352783,3.6463623-28.4197998,4.3096924
			c-0.6651611,0.0354004-1.3660889,0.0710449-2.0567627,0.1065674c-83.7900391,8.4122314-268.276123,6.7115479-268.276123,6.7115479
			s-184.486084,1.7006836-268.2762451-6.7115479c-0.6907349-0.0355225-1.3917236-0.071167-2.0568237-0.1065674
			c-12.2247925-0.6547852-21.3527832-2.1799316-28.1779785-4.2235107c1.0093994-1.0863037,1.3049927-2.5115967,1.0947876-4.138916
			c-0.3303223-0.0933838-0.6815186-0.182373-1.0015259-0.2780762c0.3078003-0.3312988,0.5309448-0.7027588,0.7124023-1.0928955
			c-2.3765869-8.6925049-16.274292-21.6000977-16.274292-21.6000977s-4.5274048,5.831543-5.4754028,13.7038574
			c0.2546387,3.609375,1.3939209,7.4580078,4.09729,11.2695312
			C782.432312,1789.0102539,784.0772095,1790.881958,786.5123901,1792.6358643z"/>
	</g>
	
		<linearGradient id="SVGID_00000020400674944332966520000009517358015173922465_" gradientUnits="userSpaceOnUse" x1="1096.9069824" y1="1800.5338135" x2="1096.9069824" y2="1498.0478516">
		<stop  offset="0" style="stop-color:#F2F2F2"/>
		<stop  offset="0.327957" style="stop-color:#878787"/>
		<stop  offset="0.3519554" style="stop-color:#8C8C8C"/>
		<stop  offset="0.3807746" style="stop-color:#9B9B9B"/>
		<stop  offset="0.412075" style="stop-color:#B3B3B3"/>
		<stop  offset="0.4451393" style="stop-color:#D5D5D5"/>
		<stop  offset="0.478618" style="stop-color:#FFFFFF"/>
		<stop  offset="0.5533897" style="stop-color:#F4F4F4"/>
		<stop  offset="0.6868066" style="stop-color:#D5D5D5"/>
		<stop  offset="0.8620327" style="stop-color:#A4A4A4"/>
		<stop  offset="1" style="stop-color:#787878"/>
	</linearGradient>
	<path style="fill:url(#SVGID_00000020400674944332966520000009517358015173922465_);" d="M1412.6378174,1761.0941162
		l-0.0008545,0.0002441c-0.2904053-0.3618164-0.6022949-0.7163086-0.9442139-1.0582275l-68.7930908-60.0900879
		c-6.5081787-6.5081787-10.559082-15.0710449-11.4628906-24.2304688l-7.0095215-177.6677246h-227.5976562H869.244812
		l-7.0222778,177.6677246c-0.9039307,9.1594238-4.954834,17.72229-11.4630127,24.2304688l-57.6719971,48.7825928l-0.007019,0.006958
		l-4.7305908,4.7303467c-2.0977783,1.9063721-3.7797852,3.6140137-5.1044312,5.1044922l-1.4654541,1.4656982
		c-0.1263428,0.1259766-0.2294312,0.2613525-0.3485107,0.390625l-0.2631836,0.2640381l0.0044556,0.0256348
		c-1.045166,1.2026367-1.8053589,2.5117188-2.2890015,3.8741455c-0.5300903,1.0241699-0.6612549,1.5598145-0.6612549,1.5598145
		l0.0003662,0.0018311c-2.2615967,5.7786865-2.6635742,14.4467773,10.3710327,20.5612793
		c-0.0014038,0.0012207-0.0029297,0.0020752-0.0043335,0.0031738c0.0317383,0.0153809,0.0736084,0.0299072,0.1057129,0.0452881
		c7.161499,3.3341064,18.3306885,5.9038086,35.4428711,6.8125c0.6706543,0.0357666,1.3774414,0.0710449,2.0740356,0.1068115
		c84.4920654,8.4118652,270.5241089,6.7116699,270.5241089,6.7116699s186.0318604,1.7001953,270.5241699-6.7116699
		c0.6966553-0.0357666,1.4034424-0.0710449,2.0739746-0.1068115c15.8513184-0.8416748,26.5731201-3.1156006,33.7659912-6.095459
		c0.0736084-0.0280762,0.1363525-0.057251,0.2084961-0.0855713c0.4776611-0.2006836,0.9639893-0.399292,1.40979-0.6060791
		c0.050293-0.0238037,0.1151123-0.0466309,0.1643066-0.0706787c-0.0029297-0.0024414-0.0062256-0.0042725-0.0092773-0.0067139
		c6.8284912-3.2047119,9.9899902-7.1065674,11.1020508-10.9309082
		C1419.0585938,1767.4960938,1412.6378174,1761.0941162,1412.6378174,1761.0941162z"/>
	<g>
		<g>
			<path class="st130" d="M2194,1441.7498779v-156.307373H0v156.307373c0,31.0925293,25.2053986,56.2978516,56.2977982,56.2978516
				h2081.404541C2168.7946777,1498.0477295,2194,1472.8424072,2194,1441.7498779z"/>
			<path class="st130" d="M2194,1441.7498779v-156.307373H0v156.307373c0,31.0925293,25.2053986,56.2978516,56.2977982,56.2978516
				h2081.404541C2168.7946777,1498.0477295,2194,1472.8424072,2194,1441.7498779z"/>
		</g>
	</g>
	<path class="st139" d="M2128.0002441,1406.7854004h-2062c-7.7320023,0-14.0000038-6.2680664-14.0000038-14.0001221
		L52.0000992,64.2192993c0-7.7319984,6.2679977-14,14.0001144-14H2128c7.7321777,0,14.0002441,6.2680016,14.0002441,14v1328.565918
		C2142.0002441,1400.517334,2135.7321777,1406.7854004,2128.0002441,1406.7854004z"/>
</g>
<g>
</g>
<g>
</g>
<g>
</g>
<g>
</g>
<g>
</g>
<g>
</g>
</svg>
