<?xml version="1.0" encoding="UTF-8"?>
<svg id="monitor" xmlns="http://www.w3.org/2000/svg" xmlns:xlink="http://www.w3.org/1999/xlink" viewBox="0 0 2501.8839062917 1376.9044">
  <defs>
    <style>
      .cls-1 {
        fill: url(#linear-gradient-2);
      }

      .cls-2 {
        fill: url(#_Áåçûìÿííûé_ãðàäèåíò_33-2);
      }

      .cls-3 {
        fill: url(#_Áåçûìÿííûé_ãðàäèåíò_33);
      }

      .cls-4 {
        fill: url(#_Áåçûìÿííûé_ãðàäèåíò_14);
      }

      .cls-5 {
        fill: url(#_Áåçûìÿííûé_ãðàäèåíò_24);
      }

      .cls-6 {
        fill: url(#_Áåçûìÿííûé_ãðàäèåíò_52);
      }

      .cls-7 {
        fill: url(#_Áåçûìÿííûé_ãðàäèåíò_53-2);
      }

      .cls-8 {
        fill: url(#linear-gradient);
      }

      .cls-9 {
        fill: url(#_Áåçûìÿííûé_ãðàäèåíò_24-2);
      }

      .cls-10 {
        fill: url(#_Áåçûìÿííûé_ãðàäèåíò_53);
      }

      .cls-11 {
        fill: url(#_Áåçûìÿííûé_ãðàäèåíò_14-2);
      }

      .cls-12 {
        fill: url(#_Áåçûìÿííûé_ãðàäèåíò_52-2);
      }
    </style>
    <linearGradient id="_Áåçûìÿííûé_ãðàäèåíò_53" data-name="Áåçûìÿííûé ãðàäèåíò 53" x1="47.9052062917" y1="899.0817" x2="146.5219062917" y2="899.0817" gradientTransform="translate(2525.5920125835 1587.62) rotate(-180)" gradientUnits="userSpaceOnUse">
      <stop offset=".5" stop-color="#4c4c4c"/>
      <stop offset=".6000603818" stop-color="#4f4f4f"/>
      <stop offset=".6804308022" stop-color="#595959"/>
      <stop offset=".7539739378" stop-color="#6a6a6a"/>
      <stop offset=".8234740883" stop-color="#818181"/>
      <stop offset=".8901224852" stop-color="#a0a0a0"/>
      <stop offset=".9537057617" stop-color="#c5c5c5"/>
      <stop offset="1" stop-color="#e6e6e6"/>
    </linearGradient>
    <linearGradient id="_Áåçûìÿííûé_ãðàäèåíò_52" data-name="Áåçûìÿííûé ãðàäèåíò 52" x1="91.1053562917" y1="1580.8102" x2="91.1053562917" y2="219.0744" gradientTransform="translate(2525.5920125835 1587.62) rotate(-180)" gradientUnits="userSpaceOnUse">
      <stop offset="0" stop-color="#c6cecb"/>
      <stop offset=".0546109807" stop-color="#a2a6a5"/>
      <stop offset=".1170469151" stop-color="#7f8181"/>
      <stop offset=".1824507103" stop-color="#636264"/>
      <stop offset=".2506561927" stop-color="#4d4b4d"/>
      <stop offset=".3228625972" stop-color="#3e3a3d"/>
      <stop offset=".4017675066" stop-color="#343034"/>
      <stop offset=".5" stop-color="#322d31"/>
    </linearGradient>
    <linearGradient id="linear-gradient" x1="39.5329062917" y1="899.9078" x2="138.1493062917" y2="899.9078" gradientTransform="translate(2525.5920125835 1587.62) rotate(-180)" gradientUnits="userSpaceOnUse">
      <stop offset="0" stop-color="#e6e6e6"/>
      <stop offset=".0462942383" stop-color="#c5c5c5"/>
      <stop offset=".1098775148" stop-color="#a0a0a0"/>
      <stop offset=".1765259117" stop-color="#818181"/>
      <stop offset=".2460260622" stop-color="#6a6a6a"/>
      <stop offset=".3195691978" stop-color="#595959"/>
      <stop offset=".3999396182" stop-color="#4f4f4f"/>
      <stop offset=".5" stop-color="#4c4c4c"/>
    </linearGradient>
    <linearGradient id="_Áåçûìÿííûé_ãðàäèåíò_53-2" data-name="Áåçûìÿííûé ãðàäèåíò 53" x1="14.408099636" y1="686.88595" x2="113.0247971448" y2="686.88595" gradientTransform="matrix(1, 0, 0, 1, 0, 0)" xlink:href="#_Áåçûìÿííûé_ãðàäèåíò_53"/>
    <linearGradient id="_Áåçûìÿííûé_ãðàäèåíò_52-2" data-name="Áåçûìÿííûé ãðàäèåíò 52" x1="57.6082485447" y1="1368.6143" x2="57.6082485447" y2="6.8787" gradientTransform="matrix(1, 0, 0, 1, 0, 0)" xlink:href="#_Áåçûìÿííûé_ãðàäèåíò_52"/>
    <linearGradient id="linear-gradient-2" x1="6.0357998475" y1="687.7122" x2="104.6522973563" y2="687.7122" gradientTransform="matrix(1, 0, 0, 1, 0, 0)" xlink:href="#linear-gradient"/>
    <linearGradient id="_Áåçûìÿííûé_ãðàäèåíò_33" data-name="Áåçûìÿííûé ãðàäèåíò 33" x1="1250.3544487182" y1="78.0787080234" x2="1250.3544487182" y2="20.6478" gradientUnits="userSpaceOnUse">
      <stop offset=".479899" stop-color="#000"/>
      <stop offset=".6059991256" stop-color="#030303"/>
      <stop offset=".7072655425" stop-color="#0c0d0c"/>
      <stop offset=".7999048853" stop-color="#1c1e1d"/>
      <stop offset=".8874065142" stop-color="#333534"/>
      <stop offset=".9705402385" stop-color="#4f5451"/>
      <stop offset="1" stop-color="#5c615e"/>
    </linearGradient>
    <linearGradient id="_Áåçûìÿííûé_ãðàäèåíò_24" data-name="Áåçûìÿííûé ãðàäèåíò 24" x1="1248.6856414858" y1="78.0787080234" x2="1248.6856414858" y2="12.042" gradientUnits="userSpaceOnUse">
      <stop offset=".469849" stop-color="#000"/>
      <stop offset=".6090789901" stop-color="#030203"/>
      <stop offset=".7209085749" stop-color="#0d0c0c"/>
      <stop offset=".8231993352" stop-color="#1e1b1d"/>
      <stop offset=".9192203861" stop-color="#353134"/>
      <stop offset="1" stop-color="#504a4e"/>
    </linearGradient>
    <linearGradient id="_Áåçûìÿííûé_ãðàäèåíò_14" data-name="Áåçûìÿííûé ãðàäèåíò 14" x1="1246.0654475934" y1="75.0472984687" x2="1246.0654475934" y2="5.1576" gradientUnits="userSpaceOnUse">
      <stop offset=".48995" stop-color="#504d4d"/>
      <stop offset=".5667722661" stop-color="#545151"/>
      <stop offset=".6499528895" stop-color="#615e5e"/>
      <stop offset=".7361464408" stop-color="#767474"/>
      <stop offset=".8244107661" stop-color="#949292"/>
      <stop offset=".9133634861" stop-color="#b9b8b8"/>
      <stop offset="1" stop-color="#e6e6e6"/>
    </linearGradient>
    <linearGradient id="_Áåçûìÿííûé_ãðàäèåíò_33-2" data-name="Áåçûìÿííûé ãðàäèåíò 33" x1="1283.851481339" y1="290.2746011042" x2="1283.851481339" y2="232.8436" gradientTransform="translate(2525.5920125835 1587.62) rotate(-180)" xlink:href="#_Áåçûìÿííûé_ãðàäèåíò_33"/>
    <linearGradient id="_Áåçûìÿííûé_ãðàäèåíò_24-2" data-name="Áåçûìÿííûé ãðàäèåíò 24" x1="1282.1828015715" y1="290.2746011042" x2="1282.1828015715" y2="224.2378" gradientTransform="translate(2525.5920125835 1587.62) rotate(-180)" xlink:href="#_Áåçûìÿííûé_ãðàäèåíò_24"/>
    <linearGradient id="_Áåçûìÿííûé_ãðàäèåíò_14-2" data-name="Áåçûìÿííûé ãðàäèåíò 14" x1="1279.5625372953" y1="287.2430637515" x2="1279.5625372953" y2="217.3532" gradientTransform="translate(2525.5920125835 1587.62) rotate(-180)" xlink:href="#_Áåçûìÿííûé_ãðàäèåíò_14"/>
  </defs>
  <path d="m2401.2541062917,0H100.6297974579C45.2623988566,0,0,38.7081,0,86.0578v1204.7888c0,47.3286,45.2623988566,86.0578,100.6297974579,86.0578h2300.6243088339c55.3671,0,100.6298-38.7292,100.6298-86.0578V86.0578c0-47.3497-45.2627-86.0578-100.6298-86.0578Zm50.327,1290.255c0,24.0869-22.8288,43.6311-51.0188,43.6311H101.3215974404c-28.1654992885,0-51.0189987112-19.5442-51.0189987112-43.6311V85.7198c0-24.108,22.8534994227-43.6311,51.0189987112-43.6311h2299.2407088513c28.19,0,51.0188,19.5231,51.0188,43.6311v1204.5352Z"/>
  <path class="cls-10" d="m2379.0701062917,1370.2668c7.326,0,14.4706-.7228,21.3336-2.0827,4.7496-.9294,9.2981-2.1686,13.6855-3.6658,34.878-11.9277,59.5724-41.1183,59.5724-75.1455V84.5712c0-31.015-20.5284-58.0027-50.556-71.5824-2.9184-1.3081-5.917-2.5129-9.0164-3.5628-.3222-.1033-.6239-.2066-.946-.3097-1.3685-.4649-2.7573-.8951-4.1661-1.2739-.1005-.258-.1408-.5508-.1408-.8433,0-.0688,0-.1377.02-.1893.2819,0,.5838.0689.8655.1378,1.3687.344,2.7372.7055,4.0855,1.1186,3.4416.9983,6.7824,2.1686,10.0429,3.5111,31.7986,13.0463,53.8366,40.8601,53.8366,72.9939v1204.8016c0,36.7121-28.7397,67.7789-67.965,77.6237-8.4528,2.1344-17.3887,3.2703-26.6265,3.2703h-4.0252Z"/>
  <path class="cls-6" d="m2408.9771062917,7.8424c-.1005-.258-.1408-.5508-.1408-.8433,0-.0688,0-.1377.02-.1893.2819.0345.5838.086.8655.1378,1.4088.2409,2.7975.5162,4.1863.8088,3.4816.7401,6.903,1.6523,10.2238,2.7366,3.9446,1.2565,7.7887,2.754,11.4315,4.4578.0605.0344.1005.0517.1611.086l.7243.3615c28.3775,13.5282,47.5977,39.466,47.5977,69.1729v1204.8016c0,29.707-19.2202,55.6448-47.5977,69.173-.161.086-.3419.172-.5232.2582-8.0704,3.8036-16.8855,6.6091-26.2038,8.1925-3.0189.5164-6.1183.9123-9.2378,1.1705-3.0189.258-5.9975.3786-9.0161.3786h-6.5411c10.1838,0,19.9849-1.4114,29.1624-4.0273,36.81-10.4647,63.4165-40.189,63.4165-75.1455V84.5712c0-31.9274-22.2191-59.5001-54.1385-72.0126-2.9989-1.1877-6.098-2.2378-9.278-3.1326-.3422-.1033-.6641-.1895-1.0063-.2582-1.3285-.3959-2.6567-.7228-4.0252-1.0328-.0403-.086-.0806-.1893-.0806-.2926Z"/>
  <path class="cls-8" d="m2414.0086062917,6.9303c-1.6301-.4131-3.2605-.7746-4.9307-1.1015.1006-.2582.2214-.4819.3823-.6712,1.4693.2408,2.9183.5163,4.3673.8088,3.5422.723,7.0038,1.6351,10.3849,2.7023,36.0654,11.4282,61.8467,41.1352,61.8467,75.9025v1204.8016c0,44.6122-42.4253,80.894-94.5912,80.894h-4.0252c17.7106,0,34.2941-4.1825,48.4829-11.4628.1813-.0862.3622-.1722.5232-.2582,27.3109-14.1995,45.5851-39.8962,45.5851-69.173V84.5712c0-29.2594-18.2742-54.9561-45.5851-69.1729l-.7243-.3615c-.1006-.0516-.2014-.1031-.302-.1549-3.5824-1.8243-7.3259-3.4423-11.2101-4.8364-3.3005-1.2048-6.7219-2.2547-10.2038-3.1152Z"/>
  <path class="cls-7" d="m113.0247971448,5.1576c-7.3259998149,0-14.470590853.7228-21.333590853,2.0824-4.7496084881.9295-9.2981083732,2.1687-13.6855082623,3.6661C43.1277989105,22.8337,18.4332995343,52.0243,18.4332995343,86.0513v1204.8018c0,31.0151,20.5283994814,58.0026,50.5559987228,71.5823,2.9183999263,1.3081,5.9169998505,2.5131,9.0163997722,3.5627.3221999919.1034.6238999842.2067.9460999761.31,1.3684999654.4646,2.7571999303.895,4.1659998948,1.2736.1004999975.2582.1407999964.5509.1407999964.8433,0,.0689,0,.1378-.0199999995.1893-.2818999929,0-.5837999853-.0687-.8656999781-.1375-1.3684999654-.3442-2.7369999309-.7057-4.0854998968-1.1188-3.4413999131-.9983-6.7821917306-2.1687-10.0426997463-3.5112-31.7987991967-13.0462-53.83659864-40.86-53.83659864-72.9937V86.0513c0-36.712,28.739699274-67.7786,67.9647982831-77.6236,8.4530997865-2.1343,17.3888995607-3.2701,26.6266993274-3.2701h4.0251998983Z"/>
  <path class="cls-12" d="m83.1177979003,1367.5817c.1004999975.2582.1407999964.5509.1407999964.8433,0,.0689,0,.1378-.0199999995.1893-.2818999929-.0344-.5837999853-.086-.8656999781-.1375-1.4084999644-.2409-2.7972999293-.5164-4.1860998943-.8091-3.481799912-.7399-6.9029998256-1.6522-10.2237997417-2.7366-3.9448999003-1.2563-7.7886998032-2.7537-11.4313997112-4.4577-.0605999985-.0345-.1005999975-.0516-.1610999959-.086l-.7243999817-.3615c-28.3773992831-13.5282-47.5976987976-39.4658-47.5976987976-69.1728V86.0513c0-29.707,19.2202995145-55.6448,47.5976987976-69.1729.1607999959-.086.3418999914-.172.5232999868-.2582,8.0703997961-3.8036,16.8853995734-6.6091,26.203499338-8.1925,3.0188999237-.5164,6.1183083726-.9122,9.2379997666-1.1706,3.0185999237-.258,5.997308606-.3784,9.0161997722-.3784h6.5409998348c-10.1837997427,0-19.9850994951,1.4112-29.1623992633,4.0274C41.1956989593,21.3706,14.5892996314,51.0949,14.5892996314,86.0513v1204.8018c0,31.9272,22.2189994387,59.5,54.1383986323,72.0127,2.9988999242,1.1874,6.0980998459,2.2375,9.2779997656,3.1323.3421999914.1034.6641999832.1896,1.0062999746.2584,1.3282999664.3958,2.6566999329.7229,4.0252082877,1.0326.0402916096.0862.0805916085.1893.0805916085.2926Z"/>
  <path class="cls-1" d="m78.0862980274,1368.4939c1.6300999588.413,3.2602999176.7746,4.9306998754,1.1016-.1005999975.2582-.2213999944.4818-.3824999903.6713-1.4689999629-.2411-2.9180999263-.5164-4.3670998897-.809-3.5421917311-.7228-7.0037998231-1.6352-10.3848997377-2.7022-36.0655990889-11.4284-61.8466984376-41.1353-61.8466984376-75.9025V86.0513C6.0357998475,41.4392,48.4608987758,5.1576,100.6270974579,5.1576h4.0251998983c-17.7106995526,0-34.2944991336,4.1822-48.4828987752,11.4626-.1813999954.0862-.3624999908.1722-.5232999868.2582C28.3352062917,31.078,10.0609997458,56.7745,10.0609997458,86.0513v1204.8018c0,29.2595,18.2742065459,54.9562,45.5850988484,69.1728l.7243999817.3615c.1004999975.0515.2012999949.1033.3018999924.1548,3.5823999095,1.8245,7.3256998149,3.4424,11.2100997168,4.8364,3.3004999166,1.2048,6.7218998302,2.2547,10.2037997422,3.1153Z"/>
  <g>
    <path class="cls-3" d="m2482.5419062917,73.659c-.7447-1.6007-1.5496-3.1497-2.4153-4.6815-1.8313-3.2012-3.9647-6.2476-6.3598-9.1222-13.8665-16.6778-36.6491-27.5898-62.3496-27.5898H90.5037977137c-25.5798993538,0-48.2614987808,10.8089-62.14829843,27.3489-4.2667998922,5.0604-7.7084998053,10.6712-10.1234997443,16.6781-1.4690999629,1.8758-2.7369999309,2.1169-3.5821999095,1.4456,4.789799879-32.1509,36.971099066-57.0903,75.8539980838-57.0903h2320.913408578c33.107,0,61.3836,18.1065,71.9899,43.3384.6844,1.6007,1.2882,3.2357,1.8115,4.9053,1.7307,5.4732.7646,12.203-2.6767,4.7675Z"/>
    <path class="cls-5" d="m2480.1266062917,68.9775c-.6439-.7057-1.3483-1.6694-2.1132-2.9259-1.308-2.1343-2.717-4.1996-4.2466-6.1963-15.4766-20.2233-42.1837-33.6139-72.4932-33.6139H100.6270974579c-30.1886992374,0-56.7949985652,13.2873-72.2715981743,33.373-3.240292992,4.1652-5.977499849,8.6403-8.1711997936,13.3389-.6640931984,1.4459-1.3284999664,2.5473-1.9522999507,3.3392-1.4690999629,1.8758-2.7369999309,2.1169-3.5821999095,1.4456-.8856999776-.6541-1.308199967-2.2891-.9660999756-3.9931C20.5666994804,38.7715,56.20939858,12.042,99.0372062917,12.042h2302.2364c36.1865,0,67.2606,19.0876,80.1612,46.1095.946,1.9793,1.6101,4.0102,1.9723,5.8347,1.0868,5.1462-.0603,8.6574-3.2805,4.9913Z"/>
    <path class="cls-4" d="m2472.6652062917,51.6013c-16.9742-21.7583-41.9396-32.117-74.7442-32.117H100.6270974579c-41.4711989523,0-72.0346981803,18.9301-84.7720978585,50.7466-3.2847933077,8.2049-9.1265997694,4.557-7.8097933077-.8125C17.0353995696,32.7607,55.1257986074,5.1576,100.6270974579,5.1576h2297.2939088338c35.7041,0,66.8603,17.0089,82.9581,42.0548,7.4135,11.5341,1.794,17.2177-8.2139,4.3889Z"/>
  </g>
  <g>
    <path class="cls-2" d="m9.5530997587,1301.7651c.7445999812,1.6008,1.5494999609,3.1497,2.415299939,4.6816,1.8311999537,3.2014,3.9645998998,6.2478,6.3593998393,9.1221,13.8667996497,16.6779,36.6491990742,27.5899,62.3499984249,27.5899h2320.9131083298c25.5801,0,48.2617-10.8087,62.1486-27.349,4.2668-5.0601,7.7081-10.6711,10.1235-16.6779,1.469-1.876,2.7369-2.1171,3.5822-1.4458-4.7899,32.1512-36.9712,57.0904-75.8543,57.0904H80.6777979619c-33.1070991636,0-61.3838984493-18.1064-71.9899981814-43.3385-.6842999827-1.6005-1.2881999675-3.2356-1.8114999542-4.905-1.7305999563-5.4735-.7645999807-12.203,2.6767999324-4.7678Z"/>
    <path class="cls-9" d="m11.9683996977,1306.4467c.6438065941.7057,1.3481999659,1.6696,2.1130999466,2.9259,1.307999967,2.1342,2.7167066475,4.1996,4.2462998927,6.1962,15.476999609,20.2235,42.1839989343,33.6139,72.4934981687,33.6139h2300.6466085861c30.1886,0,56.7949-13.2873,72.2716-33.373,3.2402-4.1651,5.9775-8.64,8.1711-13.3389.6642-1.4458,1.3283-2.5473,1.9524-3.339,1.469-1.876,2.7369-2.1171,3.5822-1.4458.8854.6541,1.3082,2.2893.966,3.9931-6.883,34.9738-42.5257,61.7031-85.3535,61.7031H90.8212977057c-36.1864990859,0-67.2605983009-19.0874-80.161397975-46.1095-.9457999761-1.9794-1.6098999593-4.0103-1.9720999502-5.8348-1.0870999725-5.1461.0602999985-8.6573,3.2805999171-4.9912Z"/>
    <path class="cls-11" d="m19.4297995092,1323.8228c16.9740995712,21.7585,41.9394989405,32.1171,74.7441981118,32.1171h2297.2939086708c41.4709,0,72.0346-18.9301,84.7718-50.7464,3.285-8.2052,9.1269-4.5571,7.81.8124-8.9902,36.6577-47.0808,64.2609-92.5818,64.2609H94.173997621c-35.704199098,0-66.860398311-17.0092-82.9583979043-42.0551-7.4131998127-11.534-1.7936999547-17.2175,8.2141997925-4.3889Z"/>
  </g>
</svg>